<svg data-v-423bf9ae="" xmlns="http://www.w3.org/2000/svg" viewBox="0 0 547 90" class="iconLeft"><!----><!----><!----><g data-v-423bf9ae="" id="a0dba284-d322-4ff4-97f9-ff01f0b570fd" fill="white" transform="matrix(6.0301508693628145,0,0,6.0301508693628145,106.62312485364458,-1.8241202186530927)"><path d="M5.24 12.74L5.24 12.74Q3.71 12.74 2.65 12.07L2.65 12.07L2.65 12.07Q1.60 11.40 1.08 10.27L1.08 10.27L1.08 10.27Q0.56 9.14 0.56 7.77L0.56 7.77L0.56 7.77Q0.56 6.41 1.08 5.27L1.08 5.27L1.08 5.27Q1.59 4.14 2.65 3.47L2.65 3.47L2.65 3.47Q3.70 2.79 5.22 2.79L5.22 2.79L5.22 2.79Q6.67 2.79 7.77 3.50L7.77 3.50L7.77 3.50Q8.87 4.22 9.45 5.56L9.45 5.56L7.83 6.21L7.83 6.21Q7.57 5.29 6.89 4.87L6.89 4.87L6.89 4.87Q6.21 4.44 5.21 4.44L5.21 4.44L5.21 4.44Q4.22 4.44 3.57 4.87L3.57 4.87L3.57 4.87Q2.91 5.30 2.60 6.04L2.60 6.04L2.60 6.04Q2.28 6.77 2.28 7.70L2.28 7.70L2.28 7.70Q2.28 8.70 2.60 9.46L2.60 9.46L2.60 9.46Q2.91 10.22 3.58 10.66L3.58 10.66L3.58 10.66Q4.24 11.09 5.24 11.09L5.24 11.09L5.24 11.09Q6.19 11.09 6.83 10.67L6.83 10.67L6.83 10.67Q7.47 10.25 7.85 9.30L7.85 9.30L9.46 9.96L9.46 9.96Q8.89 11.31 7.79 12.02L7.79 12.02L7.79 12.02Q6.69 12.74 5.24 12.74L5.24 12.74ZM13.64 12.74L13.64 12.74Q12.61 12.74 11.81 12.26L11.81 12.26L11.81 12.26Q11.01 11.78 10.58 10.96L10.58 10.96L10.58 10.96Q10.14 10.14 10.14 9.17L10.14 9.17L10.14 9.17Q10.14 8.21 10.58 7.40L10.58 7.40L10.58 7.40Q11.01 6.59 11.81 6.11L11.81 6.11L11.81 6.11Q12.61 5.63 13.64 5.63L13.64 5.63L13.64 5.63Q14.66 5.63 15.46 6.11L15.46 6.11L15.46 6.11Q16.26 6.59 16.70 7.40L16.70 7.40L16.70 7.40Q17.14 8.21 17.14 9.17L17.14 9.17L17.14 9.17Q17.14 10.14 16.70 10.96L16.70 10.96L16.70 10.96Q16.26 11.78 15.46 12.26L15.46 12.26L15.46 12.26Q14.66 12.74 13.64 12.74L13.64 12.74ZM13.64 11.31L13.64 11.31Q14.24 11.31 14.64 11.02L14.64 11.02L14.64 11.02Q15.03 10.73 15.22 10.24L15.22 10.24L15.22 10.24Q15.40 9.76 15.40 9.17L15.40 9.17L15.40 9.17Q15.40 8.26 14.97 7.67L14.97 7.67L14.97 7.67Q14.53 7.08 13.64 7.08L13.64 7.08L13.64 7.08Q13.04 7.08 12.64 7.36L12.64 7.36L12.64 7.36Q12.24 7.64 12.06 8.11L12.06 8.11L12.06 8.11Q11.87 8.59 11.87 9.17L11.87 9.17L11.87 9.17Q11.87 9.76 12.06 10.24L12.06 10.24L12.06 10.24Q12.24 10.73 12.64 11.02L12.64 11.02L12.64 11.02Q13.04 11.31 13.64 11.31L13.64 11.31ZM22.80 2.95L24.50 2.95L24.50 12.61L22.95 12.61L22.87 11.84L22.87 11.84Q22.54 12.30 22.02 12.52L22.02 12.52L22.02 12.52Q21.49 12.74 20.89 12.74L20.89 12.74L20.89 12.74Q19.96 12.74 19.29 12.26L19.29 12.26L19.29 12.26Q18.62 11.78 18.28 10.97L18.28 10.97L18.28 10.97Q17.93 10.16 17.93 9.19L17.93 9.19L17.93 9.19Q17.93 8.22 18.28 7.41L18.28 7.41L18.28 7.41Q18.62 6.60 19.28 6.12L19.28 6.12L19.28 6.12Q19.95 5.63 20.86 5.63L20.86 5.63L20.86 5.63Q21.44 5.63 21.95 5.84L21.95 5.84L21.95 5.84Q22.47 6.04 22.80 6.46L22.80 6.46L22.80 2.95ZM21.29 11.23L21.29 11.23Q22.12 11.23 22.53 10.67L22.53 10.67L22.53 10.67Q22.95 10.11 22.95 9.19L22.95 9.19L22.95 9.19Q22.95 8.27 22.53 7.71L22.53 7.71L22.53 7.71Q22.11 7.14 21.29 7.14L21.29 7.14L21.29 7.14Q20.47 7.14 20.05 7.71L20.05 7.71L20.05 7.71Q19.63 8.29 19.63 9.19L19.63 9.19L19.63 9.19Q19.63 10.10 20.05 10.66L20.05 10.66L20.05 10.66Q20.47 11.23 21.29 11.23L21.29 11.23ZM29.34 12.74L29.34 12.74Q28.21 12.74 27.43 12.26L27.43 12.26L27.43 12.26Q26.65 11.77 26.27 10.97L26.27 10.97L26.27 10.97Q25.88 10.17 25.88 9.21L25.88 9.21L25.88 9.21Q25.88 8.29 26.25 7.46L26.25 7.46L26.25 7.46Q26.62 6.64 27.37 6.14L27.37 6.14L27.37 6.14Q28.13 5.63 29.23 5.63L29.23 5.63L29.23 5.63Q30.35 5.63 31.06 6.15L31.06 6.15L31.06 6.15Q31.77 6.67 32.08 7.45L32.08 7.45L32.08 7.45Q32.40 8.23 32.40 9.08L32.40 9.08L32.40 9.08Q32.40 9.28 32.38 9.47L32.38 9.47L32.38 9.47Q32.36 9.66 32.33 9.73L32.33 9.73L27.64 9.73L27.64 9.73Q27.88 11.23 29.35 11.23L29.35 11.23L29.35 11.23Q29.84 11.23 30.24 11.06L30.24 11.06L30.24 11.06Q30.65 10.89 30.99 10.51L30.99 10.51L32.14 11.51L32.14 11.51Q31.58 12.13 30.89 12.44L30.89 12.44L30.89 12.44Q30.20 12.74 29.34 12.74L29.34 12.74ZM27.64 8.53L30.75 8.53L30.75 8.53Q30.67 7.81 30.27 7.42L30.27 7.42L30.27 7.42Q29.87 7.03 29.22 7.03L29.22 7.03L29.22 7.03Q27.92 7.03 27.64 8.53L27.64 8.53ZM40.17 12.71L40.17 12.71Q39.29 12.71 38.50 12.39L38.50 12.39L38.50 12.39Q37.71 12.07 37.16 11.43L37.16 11.43L37.16 11.43Q36.62 10.79 36.47 9.88L36.47 9.88L38.19 9.44L38.19 9.44Q38.28 10.30 38.83 10.74L38.83 10.74L38.83 10.74Q39.38 11.18 40.20 11.18L40.20 11.18L40.20 11.18Q40.69 11.18 41.06 11.02L41.06 11.02L41.06 11.02Q41.42 10.86 41.60 10.58L41.60 10.58L41.60 10.58Q41.79 10.29 41.79 9.95L41.79 9.95L41.79 9.95Q41.79 9.53 41.53 9.24L41.53 9.24L41.53 9.24Q41.28 8.94 40.89 8.75L40.89 8.75L40.89 8.75Q40.51 8.56 39.84 8.29L39.84 8.29L39.84 8.29Q38.96 7.94 38.42 7.65L38.42 7.65L38.42 7.65Q37.88 7.35 37.50 6.82L37.50 6.82L37.50 6.82Q37.11 6.28 37.11 5.47L37.11 5.47L37.11 5.47Q37.11 4.64 37.52 4.04L37.52 4.04L37.52 4.04Q37.93 3.43 38.61 3.12L38.61 3.12L38.61 3.12Q39.30 2.80 40.13 2.80L40.13 2.80L40.13 2.80Q41.06 2.80 41.82 3.22L41.82 3.22L41.82 3.22Q42.59 3.64 43.07 4.50L43.07 4.50L41.62 5.38L41.62 5.38Q41.37 4.89 40.96 4.62L40.96 4.62L40.96 4.62Q40.55 4.35 40.07 4.35L40.07 4.35L40.07 4.35Q39.72 4.35 39.45 4.48L39.45 4.48L39.45 4.48Q39.17 4.61 39.01 4.84L39.01 4.84L39.01 4.84Q38.85 5.08 38.85 5.38L38.85 5.38L38.85 5.38Q38.85 5.75 39.09 6.01L39.09 6.01L39.09 6.01Q39.33 6.27 39.69 6.45L39.69 6.45L39.69 6.45Q40.06 6.62 40.69 6.87L40.69 6.87L40.69 6.87Q41.60 7.22 42.16 7.53L42.16 7.53L42.16 7.53Q42.72 7.83 43.12 8.39L43.12 8.39L43.12 8.39Q43.52 8.94 43.52 9.79L43.52 9.79L43.52 9.79Q43.52 10.68 43.08 11.34L43.08 11.34L43.08 11.34Q42.63 12.00 41.86 12.36L41.86 12.36L41.86 12.36Q41.10 12.71 40.17 12.71L40.17 12.71ZM47.78 12.74L47.78 12.74Q46.76 12.74 45.96 12.26L45.96 12.26L45.96 12.26Q45.16 11.78 44.72 10.96L44.72 10.96L44.72 10.96Q44.28 10.14 44.28 9.17L44.28 9.17L44.28 9.17Q44.28 8.21 44.72 7.40L44.72 7.40L44.72 7.40Q45.16 6.59 45.96 6.11L45.96 6.11L45.96 6.11Q46.76 5.63 47.78 5.63L47.78 5.63L47.78 5.63Q48.81 5.63 49.61 6.11L49.61 6.11L49.61 6.11Q50.41 6.59 50.85 7.40L50.85 7.40L50.85 7.40Q51.28 8.21 51.28 9.17L51.28 9.17L51.28 9.17Q51.28 10.14 50.85 10.96L50.85 10.96L50.85 10.96Q50.41 11.78 49.61 12.26L49.61 12.26L49.61 12.26Q48.81 12.74 47.78 12.74L47.78 12.74ZM47.78 11.31L47.78 11.31Q48.38 11.31 48.78 11.02L48.78 11.02L48.78 11.02Q49.18 10.73 49.36 10.24L49.36 10.24L49.36 10.24Q49.55 9.76 49.55 9.17L49.55 9.17L49.55 9.17Q49.55 8.26 49.11 7.67L49.11 7.67L49.11 7.67Q48.68 7.08 47.78 7.08L47.78 7.08L47.78 7.08Q47.18 7.08 46.79 7.36L46.79 7.36L46.79 7.36Q46.39 7.64 46.20 8.11L46.20 8.11L46.20 8.11Q46.02 8.59 46.02 9.17L46.02 9.17L46.02 9.17Q46.02 9.76 46.20 10.24L46.20 10.24L46.20 10.24Q46.39 10.73 46.79 11.02L46.79 11.02L46.79 11.02Q47.18 11.31 47.78 11.31L47.78 11.31ZM55.34 12.74L55.34 12.74Q54.28 12.74 53.53 12.25L53.53 12.25L53.53 12.25Q52.78 11.76 52.41 10.95L52.41 10.95L52.41 10.95Q52.04 10.14 52.04 9.20L52.04 9.20L52.04 9.20Q52.04 8.27 52.41 7.45L52.41 7.45L52.41 7.45Q52.78 6.64 53.52 6.14L53.52 6.14L53.52 6.14Q54.26 5.63 55.33 5.63L55.33 5.63L55.33 5.63Q56.37 5.63 57.13 6.14L57.13 6.14L57.13 6.14Q57.90 6.65 58.28 7.65L58.28 7.65L56.70 8.26L56.70 8.26Q56.56 7.76 56.19 7.45L56.19 7.45L56.19 7.45Q55.83 7.14 55.33 7.14L55.33 7.14L55.33 7.14Q54.78 7.14 54.42 7.43L54.42 7.43L54.42 7.43Q54.07 7.72 53.90 8.19L53.90 8.19L53.90 8.19Q53.73 8.66 53.73 9.20L53.73 9.20L53.73 9.20Q53.73 9.75 53.89 10.21L53.89 10.21L53.89 10.21Q54.06 10.67 54.42 10.95L54.42 10.95L54.42 10.95Q54.78 11.23 55.33 11.23L55.33 11.23L55.33 11.23Q55.82 11.23 56.19 10.93L56.19 10.93L56.19 10.93Q56.56 10.64 56.70 10.14L56.70 10.14L58.21 10.72L58.21 10.72Q57.87 11.68 57.11 12.21L57.11 12.21L57.11 12.21Q56.36 12.74 55.34 12.74L55.34 12.74ZM59.46 4.48L59.46 2.95L61.20 2.95L61.20 4.48L59.46 4.48ZM59.50 12.61L59.50 5.78L61.15 5.78L61.15 12.61L59.50 12.61ZM65.00 12.74L65.00 12.74Q64.30 12.74 63.73 12.48L63.73 12.48L63.73 12.48Q63.17 12.22 62.85 11.71L62.85 11.71L62.85 11.71Q62.52 11.20 62.52 10.51L62.52 10.51L62.52 10.51Q62.52 9.46 63.26 9.00L63.26 9.00L63.26 9.00Q63.99 8.53 65.24 8.53L65.24 8.53L67.02 8.53L67.02 8.53Q67.02 7.87 66.67 7.48L66.67 7.48L66.67 7.48Q66.32 7.09 65.67 7.09L65.67 7.09L65.67 7.09Q65.13 7.09 64.72 7.36L64.72 7.36L64.72 7.36Q64.31 7.63 64.07 8.05L64.07 8.05L62.79 7.13L62.79 7.13Q63.31 6.41 64.01 6.02L64.01 6.02L64.01 6.02Q64.70 5.63 65.66 5.63L65.66 5.63L65.66 5.63Q66.58 5.63 67.24 5.99L67.24 5.99L67.24 5.99Q67.91 6.34 68.26 6.99L68.26 6.99L68.26 6.99Q68.61 7.63 68.61 8.46L68.61 8.46L68.61 12.61L67.24 12.61L67.13 11.63L67.13 11.63Q66.71 12.24 66.19 12.49L66.19 12.49L66.19 12.49Q65.66 12.74 65.00 12.74L65.00 12.74ZM65.24 11.33L65.24 11.33Q65.71 11.33 66.11 11.11L66.11 11.11L66.11 11.11Q66.51 10.89 66.76 10.52L66.76 10.52L66.76 10.52Q67.01 10.16 67.02 9.73L67.02 9.73L65.34 9.73L65.34 9.73Q64.80 9.73 64.51 9.97L64.51 9.97L64.51 9.97Q64.23 10.21 64.23 10.56L64.23 10.56L64.23 10.56Q64.23 10.91 64.50 11.12L64.50 11.12L64.50 11.12Q64.76 11.33 65.24 11.33L65.24 11.33ZM71.78 12.74L71.78 12.74Q71.11 12.74 70.73 12.41L70.73 12.41L70.73 12.41Q70.35 12.08 70.35 11.25L70.35 11.25L70.35 2.95L72.02 2.95L72.02 10.79L72.02 10.79Q72.02 11.25 72.56 11.25L72.56 11.25L72.56 11.25Q72.75 11.25 73.02 11.20L73.02 11.20L73.02 12.61L73.02 12.61Q72.32 12.74 71.78 12.74L71.78 12.74Z"></path></g><!----><g data-v-423bf9ae="" id="fba9aad3-ba33-4cb7-ad59-120ca71a9901" transform="matrix(1.1421319354630703,0,0,1.1421319354630703,-11.50659857012758,-11.50659857012758)" stroke="none" fill="white"><path d="M77.8 22.2L50 10.6 22.2 22.2 10.6 50l11.5 27.8L50 89.4l27.8-11.5L89.4 50 77.8 22.2zm9.1 26.3l-12.5-3.4v-.6c0-2-1.1-3.8-2.7-4.8L77.3 25l9.6 23.5zM45.8 60.3c-.3-2.3-1.6-4.2-3.5-5.3l5-12.1c.9.3 1.8.4 2.7.4s1.9-.1 2.7-.4l6.2 15c-.8.6-1.4 1.4-1.6 2.4H45.8zm15.4-3.1c-.2 0-.4 0-.7.1l-6.2-15c1.3-.7 2.3-1.7 3.1-2.9l6.2 3.4c-.2.6-.3 1.2-.3 1.8 0 1.9 1 3.6 2.4 4.6L62 57.3c-.3-.1-.5-.1-.8-.1zM38.7 54c-.8 0-1.6.1-2.3.4l-5.6-11.6c.9-.7 1.5-1.8 1.5-3.1v-.1l9.3-2.3c.7 2.1 2.2 3.9 4.2 4.9l-5 12c-.7-.1-1.4-.2-2.1-.2zm30.1-14.9c-1.8 0-3.3.8-4.3 2.1l-6.2-3.4c.5-1.1.7-2.3.7-3.5 0-1-.2-1.9-.5-2.8l17-7.1L70 39.2c-.4-.1-.8-.1-1.2-.1zm-27.7-3.5l-9.3 2.3c-.7-1.3-2-2.2-3.6-2.2h-.3l-3.6-11.3 17.1 7.1c-.3.9-.5 1.8-.5 2.8.1.5.1.9.2 1.3zm-15.7 6.9c.7.7 1.7 1.2 2.8 1.2.3 0 .6 0 .9-.1l5.6 11.6c-1 .6-1.8 1.5-2.4 2.5L13.6 50l11.8-7.5zM63.6 58l3.8-8.1c.5.1 1 .2 1.5.2 2.2 0 4.2-1.3 5-3.2L86 50.1 64.5 59c-.2-.4-.6-.7-.9-1zm13.1-34zm-18.9 5.9c-1.4-2.5-4-4.2-6.9-4.5V12.9l24 9.9-17.1 7.1zm-8.7-17v12.5c-3 .3-5.5 2-6.9 4.5l-17.1-7.1 24-9.9zM22.8 25.2l3.5 11c-1.2.7-2 2-2 3.4 0 .5.1.9.3 1.4l-11.2 7.1 9.4-22.9zM12.7 49.5zm.5 2.1l18.5 7.7c-.2.6-.3 1.2-.3 1.9 0 1.7.6 3.2 1.6 4.5l-9.9 10-9.9-24.1zm10.3 24.9zm.9.4l9.9-10c1.2.9 2.7 1.5 4.4 1.5.7 0 1.4-.1 2-.3l7.7 18.7-24-9.9zm17.9-9.5c1.9-1.1 3.3-3.1 3.5-5.4h11.5c.2 1 .8 1.9 1.7 2.4l-9 21.7-7.7-18.7zm18.3-2.3c.2 0 .4.1.6.1.8 0 1.5-.2 2.1-.6l12.3 12.3-24 9.9 9-21.7zm16.3 10.5L64.5 63.3c.4-.6.6-1.3.6-2.1 0-.2 0-.4-.1-.6l21.7-9-9.8 24zm10.4-26.1z"></path></g><!----></svg>