<svg xmlns="http://www.w3.org/2000/svg" width="98" height="126.837" viewBox="0 0 98 126.837">
<g id="Group_402" data-name="Group 402" transform="translate(-387.702 -102.192)">
<path id="Path_7939" fill="#fbc837" d="M427.91,159.357c-3.124-1.727-5.533-4.289-8.151-7.462.107,2.984-1.324,4.475-2.977,5.884-.635.541-1.294,1.087-2.008.632-.609-.389-.39-1.283-.251-1.938,1.027-4.847,1.021-4.82-3.273-7.8-8.873-6.148-16.322-13.582-20.86-23.559-2.618-5.755-4.128-11.535-.684-17.617,4.07-7.186,15.867-6.315,18.551-.536.428.921,1.17,1.461,1.442.182.43-2.022,2.16-2.014,3.34-2.218a120.86,120.86,0,0,1,16.042-2.161c7.527-.275,15.124-.933,22.6.81-1.953.8-.409,2.242-.453,3.28-.47,11.115.132,22.221-2.44,33.287a42.963,42.963,0,0,1-7.826,16.694c-.884,1.159-2.6,2.758-4.732,2.571-2.446-.215-4.986.559-7.331-.76C428.236,158.276,428,158.776,427.91,159.357Zm-19.636-17.078a2.359,2.359,0,0,0,2.414,1.627l4.756,3.144c.248.979,1.159,1.85,1.819,1.508s.278-1.357-.737-1.558a7.113,7.113,0,0,0-.4-1.2,52.358,52.358,0,0,1-4.96-14.481c-.881-4.173-.992-8.414-1.626-12.754-1.4,1.292-1.591,3.464-3.6,3.977-.588.15-1.193.453-1.649-.133-.352-.451-.125-.976.086-1.459.477-1.091.96-2.181,1.4-3.286,2.214-5.511-.38-10.529-5.77-11.18-.015-.3,1.077-.647.214-.753a6.651,6.651,0,0,0-5.755,1.539c-3.672,3.468-4.529,7.563-3.363,12.382a31.425,31.425,0,0,0,4.883,11.427c3.34,4.566,6.894,8.96,12.349,11.228Zm16.488-37.168c-2.093.758-4.288.291-6.395.646-4.84.814-5.665,1.512-5.9,5.075a28.093,28.093,0,0,0,.075,5.637c1.084,7.89,1.079,15.921,3.848,23.593a36.171,36.171,0,0,0,6.714,12.19c.318.358.659.969,1.235.725.753-.318.477-1.069.275-1.566-1.755-4.315-2.422-8.859-3.145-13.427-1.7-10.748-1.474-21.179,4.521-30.724C427.281,105.2,425.819,105.477,424.762,105.111ZM442.148,135.4c-1.073-6.56-1.057-6.544,2.214-9.815.562-.562,1.726-1.047,1.279-1.979-.336-.7-1.451-.881-2.29-.861-3.276.08-5.261-1.537-6.113-4.587-.215-.77-.561-1.28-1.266-1.426-.955-.2-1.14.722-1.307,1.284-.987,3.313-3.2,4.775-6.6,4.791-.671,0-1.73.109-1.961.905-.244.843.7,1.3,1.247,1.78,2.142,1.877,4.054,3.764,2.4,6.959-.441.852-.708,2.076-.055,2.681.879.813,1.731-.4,2.346-.866,2.654-2,5.07-1.946,7.589.208A3.448,3.448,0,0,0,442.148,135.4Z" data-name="Path 7939" transform="translate(0 -0.121)"/>
<path id="Path_7940" fill="#474d5c" d="M501.32,398.046c1.636.241,1.9,1.287,1.882,2.768-.067,7.471-.037,14.943-.042,22.414a8.233,8.233,0,0,1-1.25.188q-31.291.013-62.582,0c-.744,0-1.567.234-2.168-.474-.032-7.562-.012-15.125-.135-22.685-.027-1.664.98-1.983,2.118-2.394.578,1.119,1.637.751,2.521.752q28.34.028,56.68.019A4.967,4.967,0,0,0,501.32,398.046Zm-13.646,5.011a.589.589,0,0,0-.348-.292c-.72-1.622-2.2-1.411-3.543-1.414q-13.391-.023-26.781,0a3.637,3.637,0,0,0-2.253.285c-1.918.072-2.453,1.38-2.471,2.961-.05,4.288-.034,8.578-.011,12.867.007,1.365.377,2.547,1.967,2.853a2.849,2.849,0,0,0,.933.368q14.817.025,29.634,0a2.681,2.681,0,0,0,2.825-1.8c.615-.045.581-.525.582-.929q.012-6.931,0-13.862C488.205,403.662,488.174,403.238,487.673,403.056Z" data-name="Path 7940" transform="translate(-33.545 -201.091)"/>
<path id="Path_7941" fill="#fcba16" d="M513.4,161.831c.086-.58.326-1.081.989-.708,2.345,1.319,4.885.545,7.331.76,2.135.187,3.848-1.412,4.732-2.571a42.962,42.962,0,0,0,7.826-16.694c2.573-11.066,1.971-22.172,2.44-33.287.044-1.037-1.5-2.478.453-3.28,3.283-.3,6.344.995,9.541,1.352,2.3.257,1.832,2.22,1.85,3.784q0,6.764,0,13.528a58.869,58.869,0,0,1-6.673,25.181,18.352,18.352,0,0,0-3.255,4.736c-3.284,4.706-7.882,7.776-12.885,10.34-1.447-.612-2.437,1.74-3.736.752-1.2-.911-2.387-.668-3.632-.682Z" data-name="Path 7941" transform="translate(-85.489 -2.595)"/>
<path id="Path_7942" fill="#2f3646" d="M429.525,476.264c.6.708,1.424.473,2.168.474q31.291.016,62.582,0a8.234,8.234,0,0,0,1.25-.188c3.8.195,3.65.2,3.859,4.077.124,2.293-.537,2.825-2.81,2.816q-33.9-.142-67.8,0c-2.41.011-3.269-.663-2.876-2.979a3.119,3.119,0,0,0,0-1.028c-.37-2.162.326-3.255,2.694-2.826C428.869,476.661,429.21,476.387,429.525,476.264Z" data-name="Path 7942" transform="translate(-25.91 -254.414)"/>
<path id="Path_7943" fill="#f8ce57" d="M602.217,122.12q0-6.764,0-13.528c.323.147.465,1.572,1,.232,2.6-6.523,7.905-7.292,13.506-6.247,4.378.817,8.061,6.289,8.124,11.521.083,6.907-3,12.681-6.705,18.162-4.835,7.162-11.448,12.5-18.383,17.5-3.191,2.3-3.1,2.391-1.876,6.029.269.8.544,1.917-.137,2.446-.852.661-1.739-.109-2.486-.688-1.805-1.4-2.231-3.539-2.968-5.512a18.348,18.348,0,0,1,3.255-4.736,5.722,5.722,0,0,0,2.933-1.309c2.032-1.652,4.2-3.137,6.312-4.689-.044.339-.251.846-.1.988.5.488.63-.235.906-.429a39.535,39.535,0,0,0,13.62-15.719,23.766,23.766,0,0,0,2.636-11.665c-.352-5.479-4.4-9.2-9.843-8.789.587.634,1.6.032,2.079.788-3.488-.337-6.361.622-7.476,4.242a11.814,11.814,0,0,0,1.286,9.353c.423.773.964,1.619.148,2.3-.771.64-1.688.048-2.373-.393-1.586-1.02-2.025-2.866-2.826-4.59C602.36,119.07,603,120.68,602.217,122.12Z" data-name="Path 7943" transform="translate(-139.144)"/>
<path id="Path_7944" fill="#fbc837" d="M484.267,316.341c6.918-4.97,11.985-11.243,13.9-19.735.929,1.621,2.689,1.623,4.181,2.144a36.446,36.446,0,0,0,5.428,16.195c1.65,2.527,4.36,3.99,5.922,6.532l-24.387-.071-.009-1.953c.7-.061,1.167-.349,1.1-1.146,3.514-4.06,6.511-8.374,6.99-13.937a15.767,15.767,0,0,0-1.79,2.9,22.476,22.476,0,0,1-11.233,10.2l-.115-.119Q484.264,316.846,484.267,316.341Z" data-name="Path 7944" transform="translate(-65.672 -132.225)"/>
<path id="Path_7945" fill="#faa128" d="M473.732,374.09l24.387.071c1.634,0,3.272-.071,4.9.029,2.979.184,6-.547,8.94.44q.049,1.83.1,3.661H461.434a13.877,13.877,0,0,1,.139-4.1l5.056-.037,1.117-.087Z" data-name="Path 7945" transform="translate(-50.09 -184.91)"/>
<path id="Path_7946" fill="#fcba16" d="M566,321.1c-2.937-.986-5.962-.255-8.94-.44-1.628-.1-3.266-.025-4.9-.029-1.563-2.542-4.272-4.005-5.923-6.532a36.445,36.445,0,0,1-5.428-16.195c1.353-.648,3.69.114,3.64-2.543,1.364,2.825,1.869,5.978,3.483,8.723a35.586,35.586,0,0,0,14.469,13.5C563.934,318.391,565.792,318.915,566,321.1Z" data-name="Path 7946" transform="translate(-104.132 -131.377)"/>
<path id="Path_7947" fill="#616876" d="M505.825,391.644a4.967,4.967,0,0,1-2.976.586q-28.34-.009-56.68-.019c-.884,0-1.943.368-2.521-.752l5.672-3.011a.392.392,0,0,0,.226.207c.371.5.913.394,1.418.394q23.768.008,47.537.009c.507,0,1.044.09,1.447-.351l.165-.183Z" data-name="Path 7947" transform="translate(-38.05 -194.689)"/>
<path id="Path_7948" fill="#e09d7f" d="M461.428,387.266h50.624a1.172,1.172,0,0,1,.094.454l-.164.183-50.4-.052a.392.392,0,0,1-.226-.207A.47.47,0,0,1,461.428,387.266Z" data-name="Path 7948" transform="translate(-50.084 -193.885)"/>
<path id="Path_7949" fill="#faa128" d="M535.56,291.727c.051,2.657-2.287,1.895-3.64,2.543-1.493-.521-3.252-.523-4.181-2.144l.4-1.934c1.244.015,2.433-.229,3.631.682,1.3.988,2.29-1.364,3.736-.752Q535.531,290.924,535.56,291.727Z" data-name="Path 7949" transform="translate(-95.242 -127.745)"/>
<path id="Path_7950" fill="#fbc837" d="M467.1,365.579l-5.056.038c.326-2.274,2.2-2.628,3.927-3.166.622.065,1.056-.132,1.138-.817l.528-.157,1.513-.019.114.118q-.075.46-.148.921a.918.918,0,0,0-1.011,1.009l-.008.008C466.752,363.713,467.171,364.765,467.1,365.579Z" data-name="Path 7950" transform="translate(-50.561 -176.332)"/>
<path id="Path_7951" fill="#f8ce57" d="M481.044,359.288l-1.513.019c.385-.521.711-1.13,1.518-1.028Q481.047,358.783,481.044,359.288Z" data-name="Path 7951" transform="translate(-62.455 -174.162)"/>
<path id="Path_7952" fill="#f8ce57" d="M475.459,361.977c-.083.685-.517.883-1.138.817C474.506,362.25,474.817,361.883,475.459,361.977Z" data-name="Path 7952" transform="translate(-58.911 -176.675)"/>
<path id="Path_7954" fill="#fae59f" d="M477.194,110.94c1.057.366,2.518.091,1.227,2.148-5.995,9.546-6.221,19.976-4.521,30.724.722,4.569,1.39,9.112,3.145,13.427.2.5.478,1.248-.275,1.566-.576.244-.917-.367-1.235-.725a36.17,36.17,0,0,1-6.714-12.19c-2.769-7.672-2.764-15.7-3.848-23.593a28.093,28.093,0,0,1-.075-5.637c.236-3.562,1.061-4.26,5.9-5.075C472.906,111.231,475.1,111.7,477.194,110.94Z" data-name="Path 7954" transform="translate(-52.432 -5.95)"/>
<path id="Path_7955" fill="#faa128" d="M523.717,165.868a3.448,3.448,0,0,1-2.514-.924c-2.519-2.155-4.935-2.2-7.589-.208-.615.463-1.468,1.68-2.346.866-.653-.6-.386-1.828.055-2.681,1.652-3.2-.259-5.082-2.4-6.959-.543-.476-1.491-.937-1.247-1.78.231-.8,1.29-.9,1.961-.905,3.395-.017,5.611-1.478,6.6-4.791.167-.562.352-1.482,1.307-1.284.706.146,1.051.656,1.266,1.426.852,3.049,2.837,4.667,6.113,4.587.839-.02,1.954.161,2.29.861.447.931-.717,1.417-1.279,1.979C522.66,159.324,522.644,159.308,523.717,165.868Z" data-name="Path 7955" transform="translate(-81.568 -30.593)"/>
<path id="Path_7956" fill="#faa128" d="M406.2,113.436c-5.831.62-9.424,6.451-7.867,12.5,1.8,7,5.707,12.658,10.588,17.819,1.806,1.909,4.124,3.282,5.607,5.505-5.455-2.268-9.009-6.662-12.349-11.228a31.425,31.425,0,0,1-4.883-11.427c-1.165-4.819-.308-8.913,3.363-12.382a6.651,6.651,0,0,1,5.755-1.539C407.274,112.789,406.182,113.138,406.2,113.436Z" data-name="Path 7956" transform="translate(-6.192 -7.073)"/>
<path id="Path_7957" fill="#fae59f" d="M474.429,241.944l1.082-.051c1.015.2,1.4,1.215.737,1.558S474.677,242.922,474.429,241.944Z" data-name="Path 7957" transform="translate(-58.985 -95.014)"/>
<path id="Path_7958" fill="#faa128" d="M452.013,227.134a3.886,3.886,0,0,1,2.415,1.627A2.36,2.36,0,0,1,452.013,227.134Z" data-name="Path 7958" transform="translate(-43.739 -84.976)"/>
<path id="Path_7959" fill="#f8c435" d="M486.592,428.348c-1.59-.305-1.961-1.488-1.968-2.853-.022-4.289-.039-8.578.011-12.867.019-1.582.553-2.889,2.47-2.961-.263.995-1.627,1.2-1.593,2.5.091,3.493.031,6.989.031,10.484a31.649,31.649,0,0,0,.462-7.668c-.126-2.4,1-3.634,3.248-3.651q13.274-.1,26.549,0c1.921.011,2.915,1.006,2.844,3.118-.121,3.605-.043,7.217-.048,10.826l-1.059-.013a2.634,2.634,0,0,1-.751-.05c-.586-.217-.2-.4.031-.635,1.164-1.178.275-1.327-.72-1.374-.5-.023-1.086-.086-1.4.383-.785,1.186.759,1.713.821,2.675-8.82.01-17.64,0-26.459.06-.88.006-2.182-.629-2.489.989Q486.585,427.827,486.592,428.348Zm2.866-12.97c.639-.115,1.2-.435,1.029-1.139a1.4,1.4,0,0,0-1.431-1.187.96.96,0,0,0-.872,1.057C488.186,414.91,488.667,415.311,489.458,415.377Zm1.045,8.59c.053-.847-.642-.994-1.164-1.1-.716-.15-1.092.374-1.157,1.036a1,1,0,0,0,.786,1.154C489.77,425.192,490.137,424.531,490.5,423.967Zm25.14-10.559c-.722-.015-1.152.276-1.125,1.059a.878.878,0,0,0,.988.93c.654.009,1.259-.191,1.324-.924C516.9,413.695,516.269,413.508,515.642,413.408Z" data-name="Path 7959" transform="translate(-65.904 -209.12)"/>
<path id="Path_7960" fill="#faa128" d="M520.532,424.582c.005-3.609-.073-7.221.048-10.826.071-2.112-.923-3.107-2.844-3.118q-13.274-.077-26.549,0c-2.247.017-3.374,1.247-3.248,3.651a31.648,31.648,0,0,1-.462,7.668c0-3.495.06-6.992-.031-10.484-.034-1.3,1.33-1.505,1.593-2.5a3.64,3.64,0,0,1,2.254-.285q13.391-.019,26.781,0c1.346,0,2.823-.209,3.543,1.413.16,5.35-.432,10.715.312,16.054l-.013.07a2.681,2.681,0,0,1-2.825,1.8q-14.817.022-29.634,0a2.847,2.847,0,0,1-.932-.368q-.006-.521-.014-1.042l.98.069c.112.731.515.9,1.257.9,8.567,0,17.135.051,25.7.075.82,0,1.8.247,2.062-.971C520.013,426.781,520.363,425.768,520.532,424.582Z" data-name="Path 7960" transform="translate(-67.838 -208.43)"/>
<path id="Path_7961" fill="#b95c32" d="M595.207,429.934l.013-.07q.019-7.88.037-15.761c.5.181.532.606.532,1.041q0,6.931,0,13.862C595.788,429.41,595.822,429.89,595.207,429.934Z" data-name="Path 7961" transform="translate(-141.128 -212.137)"/>
<path id="Path_7962" fill="#e09d7f" d="M594.465,413.48q-.018,7.881-.037,15.761c-.744-5.339-.152-10.7-.312-16.054A.592.592,0,0,1,594.465,413.48Z" data-name="Path 7962" transform="translate(-140.336 -211.514)"/>
<path id="Path_7964" fill="#faa128" d="M631.034,148.675c4.708-4.091,9.051-8.48,12.163-13.981a30.506,30.506,0,0,0,3.637-9.772,9.967,9.967,0,0,0-6.507-11.072c-.479-.756-1.491-.154-2.078-.788,5.446-.408,9.491,3.31,9.843,8.789a23.766,23.766,0,0,1-2.636,11.665,39.535,39.535,0,0,1-13.62,15.719c-.276.193-.4.916-.906.429C630.783,149.521,630.989,149.014,631.034,148.675Z" data-name="Path 7964" transform="translate(-165.389 -7.372)"/>
<path id="Path_7965" fill="#fae59f" d="M484.154,334.9q.074-.461.149-.921a22.468,22.468,0,0,0,11.234-10.2,15.766,15.766,0,0,1,1.79-2.9c-.479,5.563-3.476,9.877-6.99,13.937Z" data-name="Path 7965" transform="translate(-65.599 -148.732)"/>
<path id="Path_7966" fill="#fae59f" d="M487.075,369.868l-5.987-.02q-.06-.988-.118-1.979l.008-.008,6.089.053Q487.071,368.892,487.075,369.868Z" data-name="Path 7966" transform="translate(-63.433 -180.688)"/>
<path id="Path_7967" fill="#f8ce57" d="M487.084,365.592l-6.089-.053a.918.918,0,0,1,1.011-1.01l6.182-.083C488.251,365.244,487.784,365.531,487.084,365.592Z" data-name="Path 7967" transform="translate(-63.45 -178.365)"/>
<path id="Path_7968" fill="#f8ce57" d="M478.829,367.886q.059.99.118,1.979l-1.117.086C477.9,369.136,477.484,368.084,478.829,367.886Z" data-name="Path 7968" transform="translate(-61.293 -180.704)"/>
<path id="Path_7969" fill="#b95c32" d="M462.084,389.1l50.4.052c-.4.44-.941.351-1.448.351q-23.768,0-47.537-.009C463,389.491,462.455,389.592,462.084,389.1Z" data-name="Path 7969" transform="translate(-50.589 -195.13)"/>
<path id="Path_7970" fill="#f8ce57" d="M522.8,458.422c-.169,1.186-.52,2.2-2.021,2.111l-29.02-.007-.98-.069c.307-1.618,1.609-.983,2.489-.989,8.82-.057,17.639-.049,26.459-.059.787-.1,1.879.415,2.014-1Z" data-name="Path 7970" transform="translate(-70.103 -242.271)"/>
<path id="Path_7971" fill="#fcba16" d="M581.069,454c-.135,1.414-1.228.9-2.014,1-.062-.962-1.606-1.489-.821-2.675.31-.469.9-.406,1.4-.383.994.046,1.884.2.72,1.374-.235.238-.617.417-.031.635A2.634,2.634,0,0,0,581.069,454Z" data-name="Path 7971" transform="translate(-129.433 -237.859)"/>
<path id="Path_7972" fill="#fcba16" d="M497.072,422.567c-.791-.066-1.272-.468-1.274-1.269a.96.96,0,0,1,.872-1.057,1.4,1.4,0,0,1,1.431,1.187C498.276,422.132,497.711,422.452,497.072,422.567Z" data-name="Path 7972" transform="translate(-73.518 -216.31)"/>
<path id="Path_7973" fill="#fcba16" d="M498.1,451.97c-.365.565-.732,1.225-1.535,1.087a1,1,0,0,1-.786-1.154c.066-.662.441-1.186,1.157-1.036C497.455,450.977,498.15,451.123,498.1,451.97Z" data-name="Path 7973" transform="translate(-73.499 -237.123)"/>
<path id="Path_7974" fill="#fcba16" d="M579.245,421.35c.625.1,1.255.29,1.186,1.069-.066.733-.67.932-1.324.924a.878.878,0,0,1-.988-.93C578.092,421.63,578.522,421.338,579.245,421.35Z" data-name="Path 7974" transform="translate(-129.505 -217.066)"/>
<path id="Path_7975" fill="#f8c435" d="M493.841,465.026l29.02.007c-.264,1.218-1.242.974-2.061.972-8.567-.024-17.135-.075-25.7-.075C494.356,465.93,493.953,465.757,493.841,465.026Z" data-name="Path 7975" transform="translate(-72.187 -246.771)"/>
</g>
</svg>