<svg xmlns="http://www.w3.org/2000/svg" width="98" height="126" viewBox="0 0 98 126">
<g id="Group_403" data-name="Group 403" transform="translate(-137.278 -569.47)">
<path id="Path_7976" fill="#cecece" d="M176.624,625.688a24.207,24.207,0,0,1-7.144-7.085,7.679,7.679,0,0,1-3.274,6.293c-.465.344-1.019.863-1.618.557-.757-.387-.394-1.2-.431-1.853a1,1,0,0,1,.04-.252c1.024-4.852.987-4.8-3.172-7.688-9.834-6.831-18.145-14.962-22.315-26.465-1.67-4.606-2.235-9.259.268-13.825,2.249-4.1,5.712-5.925,10.413-5.655,4.247.244,7.385,2.019,9.1,5.983.083.193.3.33.924,1-.859-4.666,2.458-4.327,4.867-4.776a115.882,115.882,0,0,1,27.727-2.063c2.794.156,5.681.006,8.419.9.8,7.316.515,14.656.49,21.989-2.369-.083-4.351-.666-5.112-3.295-.341-1.18-1.145-1.358-1.6-.045a4.494,4.494,0,0,1-4.309,3.3c-1.44.1-1.631.874-.5,1.723,1.88,1.41,2.1,3.172,1.427,5.238-.352,1.087.079,1.636,1.1.924,2.035-1.419,3.908-1.756,6.013-.081,1,.793,1.575.407,1.224-.961-.456-1.776-.851-3.587,1.287-4.686a38.211,38.211,0,0,1-1.089,9.313c-1.306,6.521-3.019,12.93-7.555,18.123-2.2,2.514-4.544,4.943-8.419,4.38q-3.159-.458-6.318-.926l.028.022C176.985,625.508,176.845,625.393,176.624,625.688Zm-17.661-15.381c.264.54.758.528,1.254.512,2.112,1.021,3.505,3.195,5.972,3.646l.249.223-.205-.266a2.8,2.8,0,0,0-.161-.745,60.6,60.6,0,0,1-6.275-21.155c-.273-2.18.17-4.5-.879-6.949-.462.8-.758,1.3-1.044,1.8a4.434,4.434,0,0,1-1.269,1.573c-.881.623-1.9,1.3-2.81.637-1.01-.738.491-1.377.525-2.178a5.738,5.738,0,0,1,.56-1.416c2.09-6.026,1.469-10.551-4.214-12.4-.933-1.207-2.2-.757-3.318-.533-4.588.921-7.78,5.871-7.193,10.906a31.583,31.583,0,0,0,6.926,16.262c2.6,3.252,5.252,6.549,9.263,8.3a3.371,3.371,0,0,0,2.63,1.77Zm15.44,10.168a5.526,5.526,0,0,0-.017-1.5,70.791,70.791,0,0,1-4.028-26.067c.218-6.73,1.377-13.2,5.632-18.744,1-1.308.5-1.807-.979-1.833-3.559-.063-6.961.872-10.414,1.519-1.582.3-1.816,1.192-2.118,2.637-.8,3.856.019,7.631.12,11.433a63.346,63.346,0,0,0,4.661,22.6C168.811,614.282,170.754,617.849,174.4,620.475Zm-4.157-27.535c3.091,1.974,4.45,3.921,3.3,6.843-.4,1.015.476,1.206,1.158.679,2.108-1.631,4.077-1.236,6.124.11.932.613,1.51.443,1.061-.846-.771-2.209-.477-4.03,1.679-5.435,1.122-.731.683-1.494-.531-1.556a4.609,4.609,0,0,1-4.685-3.5c-.239-.791-1-1.273-1.315-.127C176.205,592.08,173.89,592.778,170.245,592.94Z" data-name="Path 7976" transform="translate(0 -0.149)"/>
<path id="Path_7977" fill="#474d5c" d="M186.374,890.707a.345.345,0,0,1,.165-.39c.538-.341.569-.688.014-1.043q-.36-10.525,0-21.05c.35-.167.371-.34.009-.52l0-.509c.07-.047.206-.114.2-.139a2.329,2.329,0,0,0-.175-.374c.2-.818.934-.816,1.553-.992.874.839,1.969.464,2.96.466q26.535.037,53.069.011c2.5,0,5-.089,7.5-.137,1.595.284,1.078,1.543,1.083,2.464.035,6.5.009,13.01.03,19.514,0,.93.153,1.861.235,2.791q-21.263.01-42.525.013C202.448,890.8,194.411,890.744,186.374,890.707Zm32.869-2.49c4.836,0,9.673.02,14.508-.008,2.637-.015,3.593-.954,3.614-3.54.032-4.019.024-8.038.007-12.057-.011-2.7-.979-3.765-3.69-3.777q-14.119-.066-28.239-.01c-2.71.009-3.745,1.06-3.774,3.75-.044,4.019-.038,8.038,0,12.057.022,2.614.965,3.553,3.588,3.57C209.916,888.233,214.579,888.211,219.243,888.217Z" data-name="Path 7977" transform="translate(-33.326 -202.048)"/>
<path id="Path_7978" fill="#b9b7b8" d="M261.206,628.039q3.159.463,6.318.926c3.875.562,6.224-1.866,8.419-4.38,4.536-5.193,6.249-11.6,7.555-18.123a38.209,38.209,0,0,0,1.089-9.313c.107-.718,1.638-1.126.472-2.122.025-7.334.31-14.673-.49-21.989,3.735-.083,7.287,1.047,10.925,1.6a1.552,1.552,0,0,1,1.524,1.7c.007,1.108.046,2.216.07,3.324q.052,3.2.1,6.393c.444,5.408-.548,10.686-1.547,15.953a53.311,53.311,0,0,1-5.956,15.744c-1.292.848-1.424,2.515-2.522,3.5-3.389,4.667-8.039,7.781-13.077,10.418-2.457,1.271-4.923.635-7.389.031C265.231,629.95,262.605,629.9,261.206,628.039Z" data-name="Path 7978" transform="translate(-84.137 -2.431)"/>
<path id="Path_7979" fill="#2f3646" d="M178.809,944.384c8.037.037,16.074.1,24.111.1q21.263.019,42.525-.013c.777-.008,1.555,0,2.33-.029.816-.035,1.349.188,1.246,1.13a3.333,3.333,0,0,0,0,.512c.229,5.044.229,5.045-4.817,5.045-22.014,0-44.028-.046-66.042.063-2.464.012-3.224-.731-2.852-2.973a1.583,1.583,0,0,0,0-.256C175.315,944.537,175.315,944.537,178.809,944.384Z" data-name="Path 7979" transform="translate(-25.761 -255.725)"/>
<path id="Path_7980" fill="#cecece" d="M211.035,791.044a3.8,3.8,0,0,1,2.093-2.706c9.175-4.446,15.833-11.138,18.9-20.989.044-.14.234-.236.355-.352,1.481-.067,2.694.863,4.1,1.085,1.088,7.823,2.987,15.255,9.916,20.279a3.164,3.164,0,0,1,1.144,2.483,1.052,1.052,0,0,1-.046.32c-7.248-.027-14.5-.043-21.745-.095-.916-.006-1.913.305-2.728-.421.332-2.022-.924-2.333-2.446-2.05-1.438.268-3.961-1.248-3.776,2.028C214.942,791.6,212.956,790.873,211.035,791.044ZM231.322,774.7A40.613,40.613,0,0,1,217.5,787.845c3.7.433,6.48.517,8.458-1.954a24.4,24.4,0,0,0,5.381-11.185.79.79,0,0,0,.4-.993c-.019-.058-.127-.088-.195-.132Z" data-name="Path 7980" transform="translate(-50.075 -134.729)"/>
<path id="Path_7981" fill="#cecece" d="M352.086,583.63q-.053-3.2-.1-6.395c1.612-.366,1.29-2.016,1.909-3.01,3.258-5.233,11.5-6.326,16.247-2.382,4.916,4.084,5.043,11.874,2.672,18.021-4.128,10.7-11.9,18.386-21,24.982-.763.553-1.572,1.046-2.324,1.613-3.342,2.523-3.349,2.533-1.986,6.563.26.77.484,1.56-.2,2.136-.879.744-1.347-.226-1.934-.632a7.972,7.972,0,0,1-3.312-5.7c1.1-.985,1.23-2.652,2.522-3.5,2.75-1.291,4.913-3.405,7.345-5.142.911.94,1.176.073,1.532-.537l0-.006c1.168-.154,2.23-.464,2.634-1.746a33.819,33.819,0,0,0,15.475-23.442,10.836,10.836,0,0,0-1.534-7.637c-1.958-3.189-5.356-4.626-8.475-3.565-2.575.938-4.717,2.205-5.5,5.156-.848,3.216.313,5.988,1.4,8.84.272.714,1.277,1.574.185,2.221a2.132,2.132,0,0,1-2.588-.584,7.147,7.147,0,0,1-2.1-4.008C352.875,584.309,353.022,583.6,352.086,583.63Z" data-name="Path 7981" transform="translate(-139.031)"/>
<path id="Path_7982" fill="#616876" d="M234.493,842.075a1.036,1.036,0,0,0,.045-.322c4.768-.354,9.51.159,14.26.413-.636,3.114.735,4.922,3.7,5.858a16.352,16.352,0,0,1,2.9,1.6c-2.5.048-5,.135-7.5.137q-26.535.018-53.069-.011c-.991,0-2.086.373-2.96-.466l6.077-3.22q16.9.051,33.79.1C235.253,846.169,235.582,845.67,234.493,842.075Z" data-name="Path 7982" transform="translate(-37.069 -185.639)"/>
<path id="Path_7983" fill="#b9b7b8" d="M315.617,791.1c-4.75-.254-9.493-.767-14.26-.413a3.161,3.161,0,0,0-1.144-2.482c-6.929-5.024-8.829-12.456-9.916-20.279,1.376-.253,2.521-1.295,4.013-1.147,2.958,9.957,9.494,16.831,18.773,21.327A4.139,4.139,0,0,1,315.617,791.1Z" data-name="Path 7983" transform="translate(-103.888 -134.571)"/>
<path id="Path_7984" fill="#959697" d="M247.342,841.871c1.09,3.6.76,4.095-2.748,4.086q-16.895-.044-33.79-.1.038-2.053.074-4.106c1.92-.172,3.907.552,5.769-.417l6.222.022c.815.726,1.812.414,2.728.421C232.845,841.828,240.094,841.844,247.342,841.871Z" data-name="Path 7984" transform="translate(-49.918 -185.436)"/>
<path id="Path_7985" fill="#959697" d="M285.512,760.449c-1.492-.148-2.638.895-4.013,1.147-1.4-.221-2.616-1.151-4.1-1.084a6.883,6.883,0,0,1,.251-3c2.467.6,4.933,1.24,7.39-.031Q285.277,758.968,285.512,760.449Z" data-name="Path 7985" transform="translate(-95.09 -128.244)"/>
<path id="Path_7986" fill="#2f3646" d="M186.924,939.876c.555.355.524.7-.014,1.043Q186.917,940.4,186.924,939.876Z" data-name="Path 7986" transform="translate(-33.696 -252.65)"/>
<path id="Path_7987" fill="#2f3646" d="M186.959,872.025c.361.18.341.353-.009.52Z" data-name="Path 7987" transform="translate(-33.724 -206.37)"/>
<path id="Path_7988" fill="#2f3646" d="M186.992,868.811a2.327,2.327,0,0,1,.175.374c.007.025-.129.091-.2.139Z" data-name="Path 7988" transform="translate(-33.736 -204.178)"/>
<path id="Path_7989" fill="#b9b7b8" d="M259.822,745.467c.221-.3.361-.18.472.09A1.207,1.207,0,0,1,259.822,745.467Z" data-name="Path 7989" transform="translate(-83.198 -119.927)"/>
<path id="Path_7991" fill="#eaeaea" d="M226.955,626.137c-3.649-2.626-5.591-6.192-7.141-9.955a63.346,63.346,0,0,1-4.661-22.6c-.1-3.8-.924-7.577-.12-11.433.3-1.445.536-2.34,2.118-2.637,3.452-.646,6.855-1.582,10.414-1.519,1.484.026,1.983.525.979,1.833-4.255,5.547-5.415,12.013-5.632,18.744a70.79,70.79,0,0,0,4.028,26.067A5.528,5.528,0,0,1,226.955,626.137Z" data-name="Path 7991" transform="translate(-52.552 -5.811)"/>
<path id="Path_7992" fill="#959697" d="M309.583,633.088c1.166,1-.366,1.4-.472,2.122-2.138,1.1-1.743,2.91-1.287,4.686.351,1.368-.228,1.754-1.224.961-2.1-1.675-3.978-1.338-6.013.081-1.022.712-1.453.163-1.1-.924.669-2.065.453-3.828-1.427-5.238-1.132-.849-.94-1.619.5-1.723a4.494,4.494,0,0,0,4.309-3.3c.458-1.313,1.261-1.135,1.6.045C305.232,632.422,307.214,633,309.583,633.088Z" data-name="Path 7992" transform="translate(-108.661 -40.492)"/>
<path id="Path_7993" fill="#959697" d="M239.955,633.138c3.645-.162,5.96-.86,6.792-3.837.32-1.145,1.076-.663,1.315.127a4.609,4.609,0,0,0,4.685,3.5c1.214.062,1.653.825.531,1.556-2.156,1.405-2.451,3.226-1.679,5.435.449,1.289-.128,1.459-1.061.846-2.048-1.346-4.016-1.741-6.124-.11-.682.527-1.558.336-1.158-.679C244.4,637.059,243.046,635.112,239.955,633.138Z" data-name="Path 7993" transform="translate(-69.71 -40.347)"/>
<path id="Path_7994" fill="#959697" d="M156.6,580.258c-6.99-.465-10.932,6.471-8.561,14.177,2.193,7.126,6.708,12.772,12.018,17.868.74.71,1.5,1.4,2.254,2.094l-.034.8c-4.011-1.754-6.667-5.051-9.263-8.3a31.583,31.583,0,0,1-6.926-16.262c-.586-5.035,2.605-9.985,7.193-10.906C154.4,579.5,155.668,579.051,156.6,580.258Z" data-name="Path 7994" transform="translate(-5.936 -6.811)"/>
<path id="Path_7995" fill="#b9b7b8" d="M196.656,690.164l.034-.8c.931.791,2.4,1.049,2.6,2.57A3.371,3.371,0,0,1,196.656,690.164Z" data-name="Path 7995" transform="translate(-40.313 -81.779)"/>
<path id="Path_7996" fill="#b9b7b8" d="M204.816,697.357a1.151,1.151,0,0,1,1.252.511C205.574,697.885,205.08,697.9,204.816,697.357Z" data-name="Path 7996" transform="translate(-45.853 -87.199)"/>
<path id="Path_7997" fill="#fcfcfc" d="M227.363,710.4l.205.266-.249-.222Z" data-name="Path 7997" transform="translate(-61.131 -96.127)"/>
<path id="Path_7998" fill="#959697" d="M251.538,894.892c-4.663,0-9.327.019-13.99-.012-2.624-.017-3.567-.956-3.588-3.57-.033-4.019-.039-8.038,0-12.057.029-2.69,1.064-3.741,3.774-3.75q14.12-.046,28.239.01c2.712.013,3.679,1.076,3.69,3.777.017,4.019.025,8.038-.007,12.057-.021,2.586-.977,3.525-3.614,3.539C261.211,894.915,256.375,894.9,251.538,894.892Zm15.572-2.5.664-.54c.789-3.966.273-7.971.278-11.954,0-1.612-1.45-2.339-2.916-2.348-8.886-.058-17.772-.073-26.657,0a2.769,2.769,0,0,0-3.044,3.066c.037,3.417.013,6.834,0,10.251a2.089,2.089,0,0,0,.831,2.024,2.431,2.431,0,0,0,1.907.582q13.516.005,27.032-.007c.811,0,1.82.186,1.939-1.091Z" data-name="Path 7998" transform="translate(-65.622 -208.727)"/>
<path id="Path_8000" fill="#eaeaea" d="M244.994,791.234a24.4,24.4,0,0,1-5.381,11.185c-1.977,2.471-4.76,2.387-8.458,1.954a40.614,40.614,0,0,0,13.827-13.148Z" data-name="Path 8000" transform="translate(-63.735 -151.257)"/>
<path id="Path_8001" fill="#eaeaea" d="M235.2,836.742l-6.222-.022c-.185-3.276,2.338-1.76,3.776-2.028C234.279,834.409,235.536,834.72,235.2,836.742Z" data-name="Path 8001" transform="translate(-62.253 -180.822)"/>
<path id="Path_8002" fill="#eaeaea" d="M274.219,788.833l.218-1.115c.067.043.176.073.195.132a.79.79,0,0,1-.4.993Z" data-name="Path 8002" transform="translate(-92.972 -148.865)"/>
<path id="Path_8003" fill="#959697" d="M385.541,614.405c4.975-4.631,9.5-9.609,12.325-15.874a19.385,19.385,0,0,0,1.785-5.572c.88-7.145-1.579-10.682-8.565-12.344,3.117-1.061,6.515.376,8.472,3.565a10.835,10.835,0,0,1,1.533,7.637,33.807,33.807,0,0,1-15.474,23.439C385.592,614.971,385.567,614.688,385.541,614.405Z" data-name="Path 8003" transform="translate(-168.551 -7.367)"/>
<path id="Path_8004" fill="#b9b7b8" d="M380.131,687.643c.026.283.051.566.076.851-.4,1.286-1.467,1.6-2.635,1.749C377.709,688.686,379.146,688.382,380.131,687.643Z" data-name="Path 8004" transform="translate(-163.141 -80.605)"/>
<path id="Path_8005" fill="#b9b7b8" d="M372.791,696.228a1.378,1.378,0,0,1,1.532-.537C373.967,696.3,373.7,697.168,372.791,696.228Z" data-name="Path 8005" transform="translate(-159.895 -86.045)"/>
<path id="Path_8006" fill="#cecece" d="M239.437,897.233a2.089,2.089,0,0,1-.831-2.023c.013-3.417.037-6.834,0-10.251a2.769,2.769,0,0,1,3.044-3.066c8.885-.077,17.772-.061,26.657,0,1.466.01,2.919.737,2.916,2.348-.005,3.983.51,7.987-.279,11.954l-.662.54.032-.014a14.869,14.869,0,0,1-4.315.516C257.146,897.207,248.291,897.227,239.437,897.233Zm30.112-12.216a1.125,1.125,0,0,0-1.1-1.109c-.717-.073-1.43.076-1.536.9a1.261,1.261,0,0,0,1.173,1.377C268.868,886.306,269.248,885.68,269.549,885.017Zm-27.628.846c.751-.129,1.305-.482,1.23-1.324a1.084,1.084,0,0,0-1.214-1.05,1.206,1.206,0,0,0-1.2,1.362C240.744,885.608,241.221,885.87,241.922,885.862Zm27.319,8.788a.964.964,0,0,0-1.225-.967.917.917,0,0,0-.845,1.086c.045.649.33,1.216,1.089,1.159C268.987,895.874,269.219,895.31,269.241,894.65Zm-27.507-1.32a1.1,1.1,0,0,0-1.021,1.2.937.937,0,0,0,1.052,1.084.947.947,0,0,0,1.01-1.127A1.075,1.075,0,0,0,241.734,893.33Z" data-name="Path 8006" transform="translate(-68.794 -213.065)"/>
<path id="Path_8007" fill="#eaeaea" d="M241.194,929.152c8.854-.005,17.709-.026,26.563,0a14.869,14.869,0,0,0,4.315-.516c-.119,1.276-1.128,1.089-1.939,1.091q-13.516.025-27.032.007A2.431,2.431,0,0,1,241.194,929.152Z" data-name="Path 8007" transform="translate(-70.551 -244.984)"/>
<path id="Path_8008" fill="#eaeaea" d="M337.262,927.522l.662-.54Z" data-name="Path 8008" transform="translate(-135.773 -243.855)"/>
<path id="Path_8009" fill="#959697" d="M329.383,889.417c-.3.664-.682,1.289-1.462,1.164a1.261,1.261,0,0,1-1.173-1.377c.106-.819.819-.968,1.536-.9A1.124,1.124,0,0,1,329.383,889.417Z" data-name="Path 8009" transform="translate(-128.628 -217.465)"/>
<path id="Path_8010" fill="#959697" d="M246.425,889.391c-.7.01-1.176-.252-1.183-1.009a1.206,1.206,0,0,1,1.2-1.362,1.084,1.084,0,0,1,1.214,1.05C247.733,888.912,247.179,889.264,246.425,889.391Z" data-name="Path 8010" transform="translate(-73.3 -216.596)"/>
<path id="Path_8011" fill="#959697" d="M329.634,920.032c-.022.66-.254,1.225-.981,1.279-.759.056-1.044-.51-1.089-1.16a.917.917,0,0,1,.845-1.086A.964.964,0,0,1,329.634,920.032Z" data-name="Path 8011" transform="translate(-129.187 -238.447)"/>
<path id="Path_8012" fill="#959697" d="M246.189,917.981a1.075,1.075,0,0,1,1.042,1.155.947.947,0,0,1-1.01,1.127.937.937,0,0,1-1.053-1.084A1.1,1.1,0,0,1,246.189,917.981Z" data-name="Path 8012" transform="translate(-73.248 -237.716)"/>
</g>
</svg>