<svg xmlns="http://www.w3.org/2000/svg" width="98" height="126" viewBox="0 0 98 126">
<g id="Group_404" data-name="Group 404" transform="translate(-638.853 -573.262)">
<path id="Path_8013" fill="#e28258" d="M679.462,630.2c-3.164-1.684-5.582-4.231-8.127-7.018-.816,2.165-1.647,4.194-3.629,5.386-.554.333-1.105,1.037-1.815.4-.487-.438-.347-1.066-.21-1.683,1.108-4.989,1.112-5.013-3.339-8.059-8.782-6.009-16.188-13.244-20.76-22.974-2.224-4.735-3.623-9.653-2.078-14.889,1.4-4.728,4.583-7.578,9.608-8.036,4.941-.45,8.693,1.483,11.119,6.21,1.25-5.087,5.758-3.915,8.919-4.48,11.261-2.013,22.649-1.9,34.019-.694a7.325,7.325,0,0,1,1.232.348c-1.654-.152-2.222.551-2.192,2.222.1,5.274.038,10.551.039,15.827-.786,1.235-.928,2.985-2.888,3.256-2.16.3-1.811,1.242-.527,2.366a1.559,1.559,0,0,1,.675,1.789c-1.125,2.884.577,2.289,2.215,1.793a70.45,70.45,0,0,1-3.4,15.088,26.485,26.485,0,0,1-5.845,9.765c-2.62,2.747-5.613,4.365-9.647,3.145C681.825,629.656,680.591,630.1,679.462,630.2Zm-18.632-15.887-.046-.036a1.223,1.223,0,0,0,1.086.546l-.055-.034.886.585.149.021.033.146a.723.723,0,0,1,.362.314c1.021.1,1.627.907,2.409,1.41.488.314.945.987,1.553.539.7-.517-.017-1.11-.248-1.563a56.044,56.044,0,0,1-4.927-15.046,94.62,94.62,0,0,1-1.538-12.019c-.769,1.284-1.17,2.7-2.439,3.571-.828.568-1.8,1.019-2.618.439-.875-.616.168-1.341.341-2.009.234-.9.676-1.75.966-2.641,2.284-7.021-.09-10.632-7.389-11.265-2.662-.983-4.241.729-5.5,2.491-2.113,2.964-2.56,6.22-1.931,9.934a32.507,32.507,0,0,0,3.913,11.077,27.857,27.857,0,0,0,7.434,8.338c1.918,1.339,3.476,3.276,6,3.648l-.017-.021c-.042.749.382,1.029,1.069,1.046l-.045-.016Zm10.846-18.472c.332-6.206,1.667-12.115,5.272-17.34.94-1.362,1.237-2.185-1.049-2.256a44.515,44.515,0,0,0-8.191.743c-1.82.281-3.91.572-3.935,3.787-.078,10,.743,19.817,3.654,29.422,1.522,5.024,3.747,9.645,7.565,13.386.309.3.429,1.126,1.1.6.376-.3.038-.763-.1-1.168-1.9-5.711-3.607-11.48-3.757-17.543a3.717,3.717,0,0,0-1.57-2.975c1.437.31,2.508-1.461,3.908-.814,2.07.957,3.421,1.369,2.4-1.762-.5-1.517,2.4-1.917,1.508-3.32-.633-1-2.678-.449-3.323-2.029-.7-1.7-1.534-1.693-2.314-.021A2.105,2.105,0,0,1,671.677,595.841Zm20.01,7.1c-.675-2.176-.562-3.983,1.222-5.42.649-.523.4-1.166-.461-1.152-1.86.029-2.787-1.016-3.432-2.56-.423-1.013-1.115-1.2-1.475-.027a3.249,3.249,0,0,1-3.366,2.564c-.734.017-1.373.506-.633,1.069,1.909,1.454,1.687,3.4,1.256,5.975C687.27,600.976,689.37,601.287,691.687,602.94Z" data-name="Path 8013" transform="translate(0 0)"/>
<path id="Path_8014" fill="#474d5c" d="M687.638,894.812c0-7.383-.01-14.767.033-22.15.005-.895-.561-2.165,1.042-2.446.627.654,1.446.443,2.2.444q29.605.014,59.211,0c.82,0,1.76.284,2.359-.619,1.641.147,1.474,1.336,1.474,2.465q0,11.163.027,22.326Zm32.744-2.565v.011c5.006,0,10.012-.039,15.017.019,2.035.024,3.077-.766,3.067-2.842-.019-4.107.089-8.217-.029-12.321-.084-2.9-1.245-3.9-4.111-3.9q-13.464-.017-26.928.012c-3.617.005-4.125.439-4.2,4.156-.087,4.1.081,8.216-.043,12.319-.063,2.079.789,2.62,2.732,2.582C710.715,892.181,715.549,892.246,720.383,892.246Z" data-name="Path 8014" transform="translate(-33.095 -202.395)"/>
<path id="Path_8015" fill="#de7652" d="M765.444,633.259c1.129-.1,2.363-.544,3.367-.241,4.034,1.221,7.027-.4,9.647-3.145a26.485,26.485,0,0,0,5.845-9.765,70.455,70.455,0,0,0,3.4-15.087c1.546-1.3,2.528.993,4.121.554-.577-1.8-.859-3.6,1.049-4.941.637-.448.464-1.271-.289-1.311-2.375-.125-3.053-2.167-4.356-3.507,0-5.276.056-10.553-.039-15.827-.03-1.671.538-2.374,2.192-2.222a21.88,21.88,0,0,1,6.659,1.11c.881,1.757,4.037,2.785,1.821,5.558-.038.048.225.466.413.536,1.274.474.867,1.56.847,2.412-.114,4.711-.3,9.42-.456,14.129a46.733,46.733,0,0,1-5.316,17.914c-1.2.494-3.323.024-2.139,2.7.52,1.176-1.808,2.775-3.1,2.332-.856-.293-.819.253-.829.763-.016.8.888,1,1.125,1.644a22.522,22.522,0,0,1-9.168,7.587c-2.785,1.278-2.7,2.923-2.025,5.274a31.357,31.357,0,0,0,12.545,17.252,32.236,32.236,0,0,0,5.756,3.357,3.9,3.9,0,0,1,2.47,2.738l-14.4,0a2.555,2.555,0,0,0-1.176-2.415,19.764,19.764,0,0,1-6.425-8.422c-1.425-3.936-3.409-7.768-2.77-12.173a17.3,17.3,0,0,0,2.417-.841c.951-.489.689-1.456.652-2.29-.022-.494-.269-.883-.8-.576-2.272,1.322-4.316-.025-6.437-.477C768.534,634.978,766.773,634.491,765.444,633.259Z" data-name="Path 8015" transform="translate(-85.982 -3.059)"/>
<path id="Path_8016" fill="#2f3646" d="M680.1,947.941l66.342.016c3.79.174,3.673.179,3.832,4.113.081,2.028-.319,2.727-2.589,2.717q-34.255-.145-68.511-.009c-2.181.008-2.986-.608-2.6-2.7a1.455,1.455,0,0,0,0-.256C676.573,948.134,676.573,948.134,680.1,947.941Z" data-name="Path 8016" transform="translate(-25.556 -255.524)"/>
<path id="Path_8017" fill="#e28258" d="M837.771,623.829c-.237-.642-1.141-.844-1.125-1.644.01-.51-.026-1.057.829-.763,1.291.443,3.619-1.156,3.1-2.332-1.184-2.679.939-2.21,2.139-2.7.027.473-.7.88-.223,1.346.4.384.726-.125,1.095-.271,2.142-.849,3.653-2.658,5.7-3.644l.783-.54-.038.025a3.621,3.621,0,0,0,2.139-.8c8.474-5.689,14.1-13.349,15.962-23.418.687-3.71.135-7.4-2.826-10.155-1.428-1.331-3.029-2.934-5.378-1.6-5.772.405-8.416,4.07-7.075,9.78a20.132,20.132,0,0,0,1.846,4.753c.22.419.626.91.159,1.392-.4.416-.935.3-1.453.174a4.707,4.707,0,0,1-3.315-3.259c-.217-.58-.038-1.4-.992-1.589-.217,3.335-.121,6.672-1.067,9.894.159-4.71.342-9.419.456-14.129.021-.853.427-1.939-.847-2.412-.189-.07-.451-.489-.413-.537,2.215-2.773-.941-3.8-1.821-5.558,3.88-.47,3.425,2.5,3.747,5.591,1.992-5.607,5.436-8.2,10.711-8.138a10.862,10.862,0,0,1,10.974,9c1.25,6.169-.933,11.622-3.817,16.863-4.773,8.675-11.975,15.086-20.011,20.663-3.96,2.749-4.012,2.692-2.593,7.316.217.705.339,1.382-.281,1.876-.691.55-1.279.056-1.842-.362a6.828,6.828,0,0,1-3.066-4.559C838.991,622.373,838.321,623.539,837.771,623.829Z" data-name="Path 8017" transform="translate(-134.343 -0.018)"/>
<path id="Path_8018" fill="#e28258" d="M738.667,771.288c-.639,4.406,1.345,8.237,2.77,12.173a19.764,19.764,0,0,0,6.425,8.422,2.555,2.555,0,0,1,1.176,2.415l-23.9-.087c.257-3.815-2.68-2.137-4.368-2.4-1.91-.3-2.522.64-1.732,2.412a26.645,26.645,0,0,1-5.937-.05c.112-1.805,1.628-2.236,2.9-2.886,7.393-3.78,13.159-9.129,16.477-16.821.6-1.4,1.065-2.865,1.591-4.3C735.616,770.479,737.021,771.368,738.667,771.288Zm-5.686,7.119c-.212.14-.508.232-.624.428a30,30,0,0,1-12.2,11.67c-.134.069-.127.407-.218.735,1.98-.111,4.122.722,5.656-.342a17.491,17.491,0,0,0,7.382-12.491c.211-.183.668-.3.195-.672Z" data-name="Path 8018" transform="translate(-50.43 -134.281)"/>
<path id="Path_8019" fill="#616876" d="M754.883,862.5c-.6.9-1.539.618-2.359.619q-29.605.021-59.21,0c-.752,0-1.571.211-2.2-.444l6.769-3.692,50.775.047Z" data-name="Path 8019" transform="translate(-35.498 -194.861)"/>
<path id="Path_8020" fill="#b95c32" d="M762.709,849.941l-50.775-.047c.009-1.42-.45-2.87.284-4.242a26.742,26.742,0,0,0,5.937.051l6.1-.008,23.9.087,14.4,0A12.659,12.659,0,0,1,762.709,849.941Z" data-name="Path 8020" transform="translate(-49.547 -185.765)"/>
<path id="Path_8021" fill="#b95c32" d="M783.063,764.73c-1.646.08-3.051-.809-4.6-1.127q.216-1.529.432-3.058c2.121.452,4.166,1.8,6.437.477.527-.307.775.082.8.576.037.834.3,1.8-.652,2.29A17.3,17.3,0,0,1,783.063,764.73Z" data-name="Path 8021" transform="translate(-94.826 -127.724)"/>
<path id="Path_8023" fill="#e09d7f" d="M723.42,608.867a3.717,3.717,0,0,1,1.57,2.975c.149,6.063,1.855,11.832,3.757,17.543.135.405.473.872.1,1.168-.67.527-.79-.3-1.1-.6-3.817-3.741-6.042-8.362-7.565-13.386-2.911-9.6-3.731-19.425-3.654-29.422.025-3.215,2.115-3.505,3.935-3.787a44.515,44.515,0,0,1,8.191-.743c2.286.071,1.989.894,1.049,2.256-3.605,5.226-4.94,11.134-5.272,17.34-2.709.754-2.92,1.032-2.094,1.646C724.278,605.3,723.736,607.061,723.42,608.867Z" data-name="Path 8023" transform="translate(-52.753 -6.371)"/>
<path id="Path_8024" fill="#b95c32" d="M655.3,585.247c-6,3.366-7.816,7.961-5.63,14.579,2.511,7.6,7.473,13.522,13.349,18.792.757.678,1.464,1.41,2.195,2.117-2.519-.372-4.078-2.308-6-3.648a27.86,27.86,0,0,1-7.434-8.339,32.507,32.507,0,0,1-3.913-11.077c-.629-3.713-.182-6.97,1.931-9.934C651.064,585.976,652.643,584.264,655.3,585.247Z" data-name="Path 8024" transform="translate(-5.95 -7.977)"/>
<path id="Path_8025" fill="#b95c32" d="M785.609,645.209c-2.317-1.653-4.417-1.964-6.89.45.431-2.57.653-4.522-1.256-5.975-.739-.563-.1-1.052.633-1.069a3.25,3.25,0,0,0,3.366-2.564c.36-1.173,1.052-.986,1.475.027.644,1.544,1.572,2.589,3.432,2.56.865-.014,1.11.63.461,1.152C785.047,641.227,784.934,643.034,785.609,645.209Z" data-name="Path 8025" transform="translate(-93.922 -42.269)"/>
<path id="Path_8026" fill="#b95c32" d="M827.072,634.566c1.3,1.34,1.981,3.382,4.356,3.507.753.04.926.863.289,1.311-1.908,1.34-1.626,3.136-1.049,4.941-1.593.439-2.574-1.855-4.121-.554-1.638.5-3.34,1.09-2.215-1.793a1.559,1.559,0,0,0-.675-1.789c-1.283-1.123-1.633-2.067.527-2.366C826.144,637.551,826.286,635.8,827.072,634.566Z" data-name="Path 8026" transform="translate(-124.822 -41.808)"/>
<path id="Path_8027" fill="#b95c32" d="M734.827,645.454c.316-1.806.858-3.564-1.085-5.008-.826-.614-.615-.892,2.094-1.646A2.105,2.105,0,0,0,737,637.509c.78-1.672,1.618-1.682,2.314.021.645,1.58,2.69,1.03,3.323,2.029.89,1.4-2,1.8-1.508,3.32,1.025,3.132-.326,2.719-2.4,1.762C737.335,643.993,736.264,645.765,734.827,645.454Z" data-name="Path 8027" transform="translate(-64.16 -42.959)"/>
<path id="Path_8028" fill="#b95c32" d="M702.434,697.39c.589.114,1.046.362,1.069,1.045C702.816,698.419,702.392,698.139,702.434,697.39Z" data-name="Path 8028" transform="translate(-43.183 -84.653)"/>
<path id="Path_8029" fill="#b95c32" d="M710.434,703.841a.865.865,0,0,1,.887.585Z" data-name="Path 8029" transform="translate(-48.619 -89.052)"/>
<path id="Path_8030" fill="#b95c32" d="M707.22,702.036c.592-.269.861.1,1.086.545A1.222,1.222,0,0,1,707.22,702.036Z" data-name="Path 8030" transform="translate(-46.436 -87.759)"/>
<path id="Path_8031" fill="#b95c32" d="M713.765,706.206a.417.417,0,0,1,.363.314A.726.726,0,0,0,713.765,706.206Z" data-name="Path 8031" transform="translate(-50.881 -90.665)"/>
<path id="Path_8032" fill="#b95c32" d="M705.632,700.6c.414-.046.7.031.556.547Z" data-name="Path 8032" transform="translate(-45.357 -86.836)"/>
<path id="Path_8033" fill="#b95c32" d="M753.35,899.037c-4.833,0-9.668-.065-14.5.031-1.943.039-2.794-.5-2.732-2.582.124-4.1-.044-8.214.043-12.319.078-3.717.587-4.151,4.2-4.156q13.464-.018,26.928-.012c2.866,0,4.027,1.007,4.111,3.9.119,4.1.011,8.214.03,12.321.01,2.077-1.033,2.866-3.067,2.842-5.005-.058-10.011-.019-15.017-.019Zm-15.19-2.029c.4,1.493,1.643.957,2.569.961,8.349.036,16.7.026,25.048.025a4.4,4.4,0,0,0,2.974-.551c1.217-.353,1.134-1.339,1.134-2.286,0-3.327-.065-6.656.02-9.982.06-2.336-1.006-3.16-3.282-3.144-8.692.062-17.384.077-26.075-.01-2.362-.024-3.309,1.014-3.317,3.184q-.019,4.991,0,9.982C737.232,895.936,737.073,896.793,738.16,897.009Z" data-name="Path 8033" transform="translate(-66.062 -209.186)"/>
<path id="Path_8035" fill="#b95c32" d="M878.364,620.894c4-3.607,8.082-7.137,11.173-11.6,2.843-4.1,5.3-8.383,5.848-13.472.584-5.435-1.991-9.378-7.125-10.9,2.35-1.332,3.95.272,5.378,1.6,2.961,2.759,3.513,6.446,2.826,10.155-1.864,10.068-7.487,17.729-15.962,23.418A3.62,3.62,0,0,1,878.364,620.894Z" data-name="Path 8035" transform="translate(-162.678 -7.609)"/>
<path id="Path_8036" fill="#b95c32" d="M876.042,699.573l.782-.54Z" data-name="Path 8036" transform="translate(-161.101 -85.773)"/>
<path id="Path_8037" fill="#e09d7f" d="M747.467,796.09a17.491,17.491,0,0,1-7.383,12.491c-1.534,1.064-3.676.231-5.656.342.09-.328.083-.666.218-.735a30,30,0,0,0,12.2-11.67c.116-.2.412-.288.624-.428Z" data-name="Path 8037" transform="translate(-64.916 -151.964)"/>
<path id="Path_8038" fill="#e09d7f" d="M737,840.323l-6.1.008c-.79-1.773-.178-2.716,1.732-2.413C734.315,838.187,737.253,836.508,737,840.323Z" data-name="Path 8038" transform="translate(-62.288 -180.393)"/>
<path id="Path_8039" fill="#e09d7f" d="M775.071,794.649l.2-.672c.474.377.016.49-.195.672Z" data-name="Path 8039" transform="translate(-92.52 -150.523)"/>
<path id="Path_8040" fill="#e28258" d="M740.5,901.358c-1.086-.215-.927-1.072-.93-1.819q-.015-4.991,0-9.982c.008-2.17.955-3.207,3.317-3.184,8.691.086,17.383.071,26.075.01,2.276-.016,3.342.808,3.282,3.144-.085,3.325-.021,6.654-.02,9.982,0,.946.083,1.933-1.133,2.286-.794-.78-1.8-.423-2.7-.425C759.092,901.343,749.8,901.356,740.5,901.358Zm30.09-12.074a1.2,1.2,0,0,0-1.11-1.193,1.129,1.129,0,0,0-1.336,1.175,1.111,1.111,0,0,0,1.083,1.185C770.049,890.526,770.449,890.026,770.589,889.284Zm-1.032,10.959c.442-.183,1.05-.427.888-1.18-.121-.565-.37-1.232-1.118-1.211a1.105,1.105,0,0,0-1.176,1.343C768.233,899.876,768.709,900.209,769.557,900.244ZM742.9,890c.656-.081,1.191-.358,1.128-1.093a.978.978,0,0,0-1.077-.875c-.659.014-1.2.334-1.135,1.073C741.861,889.681,742.334,889.937,742.9,890Zm.1,9.755c.553-.1,1.023-.355,1.029-.944.007-.735-.53-1.026-1.2-1a.952.952,0,0,0-1.024.919C741.794,899.48,742.341,899.716,743,899.76Z" data-name="Path 8040" transform="translate(-68.402 -213.536)"/>
<path id="Path_8041" fill="#e09d7f" d="M742.487,933.346c9.3,0,18.593-.015,27.889.011.9,0,1.907-.355,2.7.425a4.408,4.408,0,0,1-2.974.55c-8.349,0-16.7.011-25.048-.025C744.13,934.3,742.89,934.839,742.487,933.346Z" data-name="Path 8041" transform="translate(-70.389 -245.524)"/>
<path id="Path_8042" fill="#b95c32" d="M831.105,892.957c-.14.742-.54,1.242-1.363,1.167a1.111,1.111,0,0,1-1.083-1.185A1.129,1.129,0,0,1,830,891.764,1.2,1.2,0,0,1,831.105,892.957Z" data-name="Path 8042" transform="translate(-128.918 -217.208)"/>
<path id="Path_8043" fill="#b95c32" d="M830.063,924.86c-.848-.034-1.325-.368-1.406-1.049a1.105,1.105,0,0,1,1.176-1.343c.748-.02,1,.647,1.118,1.211C831.113,924.433,830.506,924.676,830.063,924.86Z" data-name="Path 8043" transform="translate(-128.908 -238.152)"/>
<path id="Path_8044" fill="#b95c32" d="M747.654,893.569c-.56-.066-1.033-.323-1.081-.894-.062-.738.476-1.058,1.135-1.073a.978.978,0,0,1,1.077.875C748.848,893.212,748.312,893.49,747.654,893.569Z" data-name="Path 8044" transform="translate(-73.161 -217.102)"/>
<path id="Path_8045" fill="#b95c32" d="M747.749,924.3c-.657-.044-1.2-.28-1.193-1.02a.953.953,0,0,1,1.024-.919c.669-.03,1.205.261,1.2,1C748.772,923.949,748.3,924.206,747.749,924.3Z" data-name="Path 8045" transform="translate(-73.153 -238.08)"/>
</g>
</svg>