<svg width="841" height="311" viewBox="0 0 841 311" fill="none" xmlns="http://www.w3.org/2000/svg">
<path d="M136.894 57.24V99.24H127.094L161.254 202H172.454V244H100.774V202H107.214L104.414 193.32H68.5739L65.4939 202H71.6539V244H0.253906V202H11.4539L45.6139 99.24H37.4939V57.24H136.894ZM39.1739 59.2V97.56H48.4139L12.8539 203.96H2.21391V242.04H69.6939V203.96H62.9739L66.8939 191.36H105.534L109.734 203.96H102.734V242.04H170.494V203.96H160.134L124.574 97.56H134.934V59.2H39.1739ZM126.534 67.6V89.16H113.094L154.254 212.36H162.094V233.64H111.134V212.36H121.494L111.694 182.96H61.0139L51.2139 212.36H61.2939V233.64H10.6139V212.36H18.4539L59.6139 89.16H47.5739V67.6H126.534ZM66.0539 167.84H106.654L86.4939 106.8L66.0539 167.84ZM86.4939 133.96L94.8939 159.44H77.8139L86.4939 133.96ZM80.3339 157.76H92.3739L86.4939 139.84L80.3339 157.76ZM317.719 159.44V214.04L288.039 244H172.399V202H183.599V99.24H172.399V57.24H288.039L317.719 87.2V135.08L305.399 147.4L317.719 159.44ZM316.039 133.96V88.04L286.919 59.2H174.359V97.56H185.559V203.96H174.359V242.04H286.919L316.039 213.2V160.56L302.599 147.4L316.039 133.96ZM290.839 147.4L307.639 164.2V209L282.999 233.64H182.759V212.36H193.959V89.16H182.759V67.6H282.999L307.639 92.24V130.6L290.839 147.4ZM224.759 212.36H265.359L276.839 200.6V169.8L265.359 158.04H224.759V212.36ZM224.759 136.76H265.359L276.839 125V100.64L265.359 89.16H224.759V136.76ZM233.159 166.44H261.439L268.439 173.16V196.96L261.439 203.96H233.159V166.44ZM233.159 97.56H261.439L268.439 104.28V121.36L261.439 128.36H233.159V97.56ZM266.479 105.4L260.599 99.24H234.839V126.4H260.599L266.479 120.24V105.4ZM266.479 174.56L260.599 168.4H234.839V202H260.599L266.479 195.84V174.56ZM379.914 202H412.674V194.44H454.674V244H317.474V202H328.674V99.24H317.474V57.24H454.674V106.8H412.674V99.24H379.914V129.76H387.474V122.2H429.474V179.04H387.474V171.76H379.914V202ZM378.234 169.8H389.434V177.36H427.514V124.16H389.434V131.44H378.234V97.56H414.634V104.84H452.714V59.2H319.434V97.56H330.634V203.96H319.434V242.04H452.714V196.4H414.634V203.96H378.234V169.8ZM444.314 204.8V233.64H327.834V212.36H339.034V89.16H327.834V67.6H444.314V96.44H423.034V89.16H369.834V139.84H397.834V132.56H419.114V168.96H397.834V161.4H369.834V212.36H423.034V204.8H444.314ZM539.18 172.04H484.58L454.62 142.36V87.2L484.58 57.24H566.62L596.58 87.2V124.16H545.06V105.4L539.18 99.24H512.02L505.86 105.4V124.16L512.02 130.04H566.62L596.58 160V214.04L566.62 244H484.58L454.62 214.04V178.2H505.86V195.84L512.02 202H539.18L545.06 195.84V178.2L539.18 172.04ZM547.02 177.08V196.96L540.3 203.96H510.9L504.18 196.96V180.16H456.58V213.2L485.42 242.04H565.78L594.62 213.2V160.84L565.78 132H510.9L504.18 125.28V104.28L510.9 97.56H540.3L547.02 104.28V122.2H594.62V88.04L565.78 59.2H485.42L456.58 88.04V141.24L485.42 170.36H540.3L547.02 177.08ZM543.66 161.96H489.62L464.98 137.04V92.24L489.62 67.6H561.58L586.22 92.24V113.8H555.42V100.64L543.66 89.16H507.26L495.78 100.64V128.64L507.26 140.4H561.58L586.22 165.04V209L561.58 233.64H489.62L464.98 209V188.56H495.78V200.6L507.26 212.36H543.66L555.42 200.6V173.44L543.66 161.96ZM670.327 244H596.687V202H607.887V99.24H596.687V57.24H670.327V99.24H659.127V202H670.327V244ZM668.647 203.96H657.447V97.56H668.647V59.2H598.647V97.56H609.847V203.96H598.647V242.04H668.647V203.96ZM660.247 233.64H607.047V212.36H618.247V89.16H607.047V67.6H660.247V89.16H649.047V212.36H660.247V233.64ZM828.035 110.44H786.035V99.24H774.835V201.72H786.035V243.72H712.395V201.72H723.595V99.24H712.395V110.44H670.395V57.24H828.035V110.44ZM787.715 108.76H826.075V59.2H672.355V108.76H710.435V97.56H725.555V203.68H714.355V241.76H784.075V203.68H772.875V97.56H787.715V108.76ZM796.115 100.36V89.16H764.475V212.08H775.675V233.36H722.755V212.08H733.955V89.16H702.035V100.36H680.755V67.6H817.675V100.36H796.115Z" fill="white"/>
<rect x="0.267578" y="244.289" width="786" height="42" fill="url(#paint0_linear_83_349)"/>
<path d="M38.5211 270.021C38.6689 269.919 38.8168 269.868 38.9646 269.868C39.1216 269.868 39.2418 269.924 39.3249 270.035L40.5445 271.822C40.5814 271.869 40.5999 271.929 40.5999 272.003C40.5999 272.095 40.5722 272.187 40.5168 272.28C40.4706 272.363 40.4013 272.437 40.3089 272.502C39.5143 273.167 38.5534 273.693 37.4263 274.081C36.2991 274.469 35.1997 274.663 34.1279 274.663C32.1969 274.663 30.4184 274.197 28.7923 273.264C27.1755 272.331 25.8959 271.065 24.9535 269.466C24.0111 267.868 23.5399 266.113 23.5399 264.2C23.5399 262.278 24.0111 260.518 24.9535 258.92C25.8959 257.312 27.1755 256.042 28.7923 255.109C30.4184 254.176 32.1969 253.709 34.1279 253.709C35.1535 253.709 36.2298 253.908 37.357 254.305C38.4934 254.702 39.4958 255.229 40.3643 255.885C40.5491 256.033 40.6415 256.19 40.6415 256.356C40.6415 256.439 40.6184 256.513 40.5722 256.578L39.3249 258.338C39.251 258.458 39.1355 258.518 38.9784 258.518C38.8399 258.518 38.7013 258.463 38.5627 258.352C37.8882 257.853 37.1583 257.46 36.373 257.174C35.5969 256.878 34.8486 256.73 34.1279 256.73C32.7605 256.73 31.5086 257.063 30.3722 257.728C29.2358 258.393 28.335 259.299 27.6698 260.445C27.0046 261.581 26.672 262.833 26.672 264.2C26.672 265.558 27.0046 266.806 27.6698 267.942C28.335 269.078 29.2358 269.979 30.3722 270.644C31.5179 271.3 32.7698 271.628 34.1279 271.628C34.8486 271.628 35.5969 271.485 36.373 271.199C37.1583 270.912 37.8744 270.52 38.5211 270.021ZM59.7077 264.214C59.7077 262.283 60.1696 260.518 61.0935 258.92C62.0267 257.312 63.2924 256.047 64.8908 255.123C66.4984 254.19 68.2631 253.723 70.1848 253.723C72.1065 253.723 73.8666 254.19 75.4649 255.123C77.0725 256.047 78.3383 257.312 79.2622 258.92C80.1954 260.518 80.6619 262.283 80.6619 264.214C80.6619 266.136 80.1954 267.896 79.2622 269.494C78.3383 271.083 77.0725 272.34 75.4649 273.264C73.8666 274.188 72.1065 274.65 70.1848 274.65C68.2631 274.65 66.4984 274.188 64.8908 273.264C63.2924 272.34 62.0267 271.083 61.0935 269.494C60.1696 267.896 59.7077 266.136 59.7077 264.214ZM62.8397 264.214C62.8397 265.563 63.1631 266.796 63.8098 267.914C64.4566 269.032 65.3389 269.915 66.4568 270.561C67.584 271.208 68.8266 271.531 70.1848 271.531C71.5337 271.531 72.7671 271.208 73.8851 270.561C75.0122 269.915 75.8992 269.032 76.5459 267.914C77.2019 266.796 77.5299 265.563 77.5299 264.214C77.5299 262.865 77.2019 261.627 76.5459 260.5C75.8992 259.373 75.0122 258.486 73.8851 257.839C72.7671 257.183 71.5337 256.855 70.1848 256.855C68.8266 256.855 67.584 257.183 66.4568 257.839C65.3389 258.486 64.4566 259.373 63.8098 260.5C63.1631 261.627 62.8397 262.865 62.8397 264.214ZM114.266 271.31C114.534 271.31 114.668 271.444 114.668 271.712V273.887C114.668 274.155 114.529 274.289 114.252 274.289H101.918C101.65 274.289 101.516 274.155 101.516 273.887V254.43C101.516 254.162 101.65 254.028 101.918 254.028H104.232C104.491 254.028 104.62 254.162 104.62 254.43V271.31H114.266ZM148.272 271.31C148.54 271.31 148.674 271.444 148.674 271.712V273.887C148.674 274.155 148.535 274.289 148.258 274.289H135.924C135.656 274.289 135.522 274.155 135.522 273.887V254.43C135.522 254.162 135.656 254.028 135.924 254.028H138.238C138.497 254.028 138.626 254.162 138.626 254.43V271.31H148.272ZM169.527 254.555C169.527 254.213 169.703 254.042 170.054 254.042H182.846C183.021 254.042 183.155 254.088 183.248 254.18C183.349 254.264 183.4 254.388 183.4 254.555V256.412C183.4 256.578 183.349 256.707 183.248 256.8C183.155 256.892 183.021 256.938 182.846 256.938H172.646V262.579H180.767C180.961 262.579 181.109 262.625 181.21 262.717C181.321 262.8 181.377 262.925 181.377 263.092V264.949C181.377 265.106 181.321 265.23 181.21 265.323C181.099 265.415 180.952 265.461 180.767 265.461H172.646V271.379H182.97C183.192 271.379 183.368 271.434 183.497 271.545C183.626 271.656 183.691 271.813 183.691 272.016L183.677 273.763C183.686 273.929 183.636 274.058 183.525 274.151C183.423 274.243 183.289 274.289 183.123 274.289H170.054C169.703 274.289 169.527 274.114 169.527 273.763V254.555ZM213.595 271.545C214.167 271.545 214.823 271.425 215.563 271.185C216.311 270.945 216.939 270.654 217.447 270.312V265.434C217.447 265.277 217.494 265.143 217.586 265.032C217.688 264.921 217.812 264.865 217.96 264.865H219.914C220.053 264.865 220.173 264.921 220.275 265.032C220.376 265.143 220.427 265.277 220.427 265.434V272.086C220.427 272.197 220.399 272.308 220.344 272.418C220.288 272.529 220.224 272.612 220.15 272.668C219.355 273.222 218.325 273.693 217.059 274.081C215.794 274.469 214.639 274.663 213.595 274.663C211.654 274.663 209.876 274.202 208.259 273.278C206.642 272.344 205.363 271.079 204.42 269.48C203.487 267.882 203.02 266.117 203.02 264.186C203.02 262.265 203.487 260.505 204.42 258.906C205.363 257.308 206.638 256.047 208.245 255.123C209.862 254.19 211.641 253.723 213.581 253.723C214.634 253.723 215.733 253.908 216.879 254.277C218.025 254.638 219.018 255.16 219.859 255.843C220.007 255.964 220.08 256.107 220.08 256.273C220.08 256.393 220.048 256.49 219.983 256.564L218.792 258.352C218.708 258.49 218.584 258.56 218.417 258.56C218.288 258.56 218.173 258.514 218.071 258.421C217.443 257.885 216.722 257.488 215.909 257.229C215.105 256.971 214.334 256.841 213.595 256.841C212.227 256.841 210.975 257.169 209.839 257.825C208.703 258.472 207.802 259.359 207.137 260.486C206.481 261.604 206.153 262.837 206.153 264.186C206.153 265.544 206.481 266.787 207.137 267.914C207.802 269.032 208.703 269.919 209.839 270.575C210.975 271.222 212.227 271.545 213.595 271.545ZM241.752 254.555C241.752 254.213 241.928 254.042 242.279 254.042H255.07C255.246 254.042 255.38 254.088 255.472 254.18C255.574 254.264 255.625 254.388 255.625 254.555V256.412C255.625 256.578 255.574 256.707 255.472 256.8C255.38 256.892 255.246 256.938 255.07 256.938H244.87V262.579H252.991C253.185 262.579 253.333 262.625 253.435 262.717C253.546 262.8 253.601 262.925 253.601 263.092V264.949C253.601 265.106 253.546 265.23 253.435 265.323C253.324 265.415 253.176 265.461 252.991 265.461H244.87V271.379H255.195C255.417 271.379 255.592 271.434 255.722 271.545C255.851 271.656 255.916 271.813 255.916 272.016L255.902 273.763C255.911 273.929 255.86 274.058 255.749 274.151C255.648 274.243 255.514 274.289 255.347 274.289H242.279C241.928 274.289 241.752 274.114 241.752 273.763V254.555ZM299.633 264.214C299.633 262.283 300.095 260.518 301.019 258.92C301.952 257.312 303.218 256.047 304.816 255.123C306.424 254.19 308.188 253.723 310.11 253.723C312.032 253.723 313.792 254.19 315.39 255.123C316.998 256.047 318.264 257.312 319.188 258.92C320.121 260.518 320.587 262.283 320.587 264.214C320.587 266.136 320.121 267.896 319.188 269.494C318.264 271.083 316.998 272.34 315.39 273.264C313.792 274.188 312.032 274.65 310.11 274.65C308.188 274.65 306.424 274.188 304.816 273.264C303.218 272.34 301.952 271.083 301.019 269.494C300.095 267.896 299.633 266.136 299.633 264.214ZM302.765 264.214C302.765 265.563 303.088 266.796 303.735 267.914C304.382 269.032 305.264 269.915 306.382 270.561C307.509 271.208 308.752 271.531 310.11 271.531C311.459 271.531 312.692 271.208 313.81 270.561C314.938 269.915 315.825 269.032 316.471 267.914C317.127 266.796 317.455 265.563 317.455 264.214C317.455 262.865 317.127 261.627 316.471 260.5C315.825 259.373 314.938 258.486 313.81 257.839C312.692 257.183 311.459 256.855 310.11 256.855C308.752 256.855 307.509 257.183 306.382 257.839C305.264 258.486 304.382 259.373 303.735 260.5C303.088 261.627 302.765 262.865 302.765 264.214ZM341.441 254.568C341.441 254.217 341.612 254.042 341.954 254.042H354.468C354.644 254.042 354.778 254.088 354.87 254.18C354.972 254.264 355.023 254.388 355.023 254.555V256.412C355.023 256.578 354.972 256.707 354.87 256.8C354.778 256.892 354.644 256.938 354.468 256.938H344.559V263.646H352.542C352.727 263.646 352.87 263.692 352.972 263.784C353.073 263.877 353.124 264.006 353.124 264.172V265.877C353.124 266.043 353.073 266.173 352.972 266.265C352.87 266.358 352.727 266.404 352.542 266.404H344.559V273.763C344.559 274.114 344.388 274.289 344.047 274.289H341.954C341.612 274.289 341.441 274.114 341.441 273.763V254.568ZM399.502 254.555C399.502 254.213 399.678 254.042 400.029 254.042H412.82C412.996 254.042 413.13 254.088 413.222 254.18C413.324 254.264 413.375 254.388 413.375 254.555V256.412C413.375 256.578 413.324 256.707 413.222 256.8C413.13 256.892 412.996 256.938 412.82 256.938H402.62V262.579H410.742C410.936 262.579 411.084 262.625 411.185 262.717C411.296 262.8 411.351 262.925 411.351 263.092V264.949C411.351 265.106 411.296 265.23 411.185 265.323C411.074 265.415 410.926 265.461 410.742 265.461H402.62V271.379H412.945C413.167 271.379 413.342 271.434 413.472 271.545C413.601 271.656 413.666 271.813 413.666 272.016L413.652 273.763C413.661 273.929 413.61 274.058 413.5 274.151C413.398 274.243 413.264 274.289 413.098 274.289H400.029C399.678 274.289 399.502 274.114 399.502 273.763V254.555ZM451.538 254.028C451.806 254.028 451.94 254.162 451.94 254.43V273.915C451.94 274.174 451.806 274.303 451.538 274.303H449.335C449.021 274.303 448.771 274.165 448.586 273.887L437.749 258.657V273.915C437.749 274.174 437.62 274.303 437.361 274.303H435.046C434.778 274.303 434.645 274.174 434.645 273.915V254.43C434.645 254.162 434.778 254.028 435.046 254.028H437.444C437.73 254.028 437.98 254.185 438.192 254.499L448.836 269.231V254.43C448.836 254.162 448.965 254.028 449.224 254.028H451.538ZM483.396 271.545C483.969 271.545 484.625 271.425 485.364 271.185C486.112 270.945 486.74 270.654 487.249 270.312V265.434C487.249 265.277 487.295 265.143 487.387 265.032C487.489 264.921 487.614 264.865 487.761 264.865H489.715C489.854 264.865 489.974 264.921 490.076 265.032C490.177 265.143 490.228 265.277 490.228 265.434V272.086C490.228 272.197 490.2 272.308 490.145 272.418C490.09 272.529 490.025 272.612 489.951 272.668C489.156 273.222 488.126 273.693 486.861 274.081C485.595 274.469 484.44 274.663 483.396 274.663C481.456 274.663 479.677 274.202 478.06 273.278C476.443 272.344 475.164 271.079 474.221 269.48C473.288 267.882 472.822 266.117 472.822 264.186C472.822 262.265 473.288 260.505 474.221 258.906C475.164 257.308 476.439 256.047 478.046 255.123C479.663 254.19 481.442 253.723 483.382 253.723C484.435 253.723 485.535 253.908 486.68 254.277C487.826 254.638 488.819 255.16 489.66 255.843C489.808 255.964 489.882 256.107 489.882 256.273C489.882 256.393 489.849 256.49 489.785 256.564L488.593 258.352C488.51 258.49 488.385 258.56 488.219 258.56C488.089 258.56 487.974 258.514 487.872 258.421C487.244 257.885 486.523 257.488 485.71 257.229C484.906 256.971 484.135 256.841 483.396 256.841C482.029 256.841 480.777 257.169 479.64 257.825C478.504 258.472 477.603 259.359 476.938 260.486C476.282 261.604 475.954 262.837 475.954 264.186C475.954 265.544 476.282 266.787 476.938 267.914C477.603 269.032 478.504 269.919 479.64 270.575C480.777 271.222 482.029 271.545 483.396 271.545ZM514.658 273.887C514.658 274.165 514.528 274.303 514.27 274.303H511.941C511.821 274.303 511.724 274.266 511.65 274.192C511.586 274.118 511.553 274.017 511.553 273.887V254.458C511.553 254.18 511.683 254.042 511.941 254.042H514.27C514.528 254.042 514.658 254.18 514.658 254.458V273.887ZM553.666 254.028C553.934 254.028 554.068 254.162 554.068 254.43V273.915C554.068 274.174 553.934 274.303 553.666 274.303H551.463C551.149 274.303 550.899 274.165 550.715 273.887L539.877 258.657V273.915C539.877 274.174 539.748 274.303 539.489 274.303H537.175C536.907 274.303 536.773 274.174 536.773 273.915V254.43C536.773 254.162 536.907 254.028 537.175 254.028H539.572C539.859 254.028 540.108 254.185 540.321 254.499L550.964 269.231V254.43C550.964 254.162 551.093 254.028 551.352 254.028H553.666ZM576.183 254.555C576.183 254.213 576.359 254.042 576.71 254.042H589.502C589.677 254.042 589.811 254.088 589.904 254.18C590.005 254.264 590.056 254.388 590.056 254.555V256.412C590.056 256.578 590.005 256.707 589.904 256.8C589.811 256.892 589.677 256.938 589.502 256.938H579.302V262.579H587.423C587.617 262.579 587.765 262.625 587.866 262.717C587.977 262.8 588.033 262.925 588.033 263.092V264.949C588.033 265.106 587.977 265.23 587.866 265.323C587.755 265.415 587.608 265.461 587.423 265.461H579.302V271.379H589.626C589.848 271.379 590.024 271.434 590.153 271.545C590.282 271.656 590.347 271.813 590.347 272.016L590.333 273.763C590.342 273.929 590.292 274.058 590.181 274.151C590.079 274.243 589.945 274.289 589.779 274.289H576.71C576.359 274.289 576.183 274.114 576.183 273.763V254.555ZM611.326 254.555C611.326 254.213 611.501 254.042 611.852 254.042H624.644C624.819 254.042 624.953 254.088 625.046 254.18C625.147 254.264 625.198 254.388 625.198 254.555V256.412C625.198 256.578 625.147 256.707 625.046 256.8C624.953 256.892 624.819 256.938 624.644 256.938H614.444V262.579H622.565C622.759 262.579 622.907 262.625 623.009 262.717C623.119 262.8 623.175 262.925 623.175 263.092V264.949C623.175 265.106 623.119 265.23 623.009 265.323C622.898 265.415 622.75 265.461 622.565 265.461H614.444V271.379H624.769C624.99 271.379 625.166 271.434 625.295 271.545C625.425 271.656 625.489 271.813 625.489 272.016L625.475 273.763C625.485 273.929 625.434 274.058 625.323 274.151C625.221 274.243 625.087 274.289 624.921 274.289H611.852C611.501 274.289 611.326 274.114 611.326 273.763V254.555ZM660.534 273.707C660.571 273.772 660.59 273.841 660.59 273.915C660.59 274.026 660.553 274.118 660.479 274.192C660.405 274.266 660.308 274.303 660.188 274.303H657.652C657.522 274.303 657.412 274.271 657.319 274.206C657.236 274.141 657.148 274.031 657.056 273.874L653.688 267.485H653.453H649.572V273.777C649.572 273.943 649.526 274.072 649.434 274.165C649.35 274.257 649.226 274.303 649.059 274.303H646.967C646.634 274.303 646.468 274.128 646.468 273.777V254.568C646.468 254.411 646.514 254.287 646.606 254.194C646.699 254.093 646.819 254.042 646.967 254.042H647.507H649.129H653.453C654.802 254.042 656.007 254.324 657.07 254.887C658.132 255.451 658.959 256.245 659.55 257.271C660.142 258.296 660.437 259.47 660.437 260.791C660.437 262.158 660.114 263.364 659.467 264.408C658.83 265.443 657.947 266.228 656.82 266.764L660.534 273.707ZM649.572 264.519H653.453C654.192 264.519 654.852 264.357 655.434 264.034C656.026 263.711 656.483 263.267 656.806 262.703C657.139 262.14 657.305 261.502 657.305 260.791C657.305 260.061 657.139 259.41 656.806 258.837C656.483 258.264 656.026 257.816 655.434 257.493C654.852 257.169 654.192 257.008 653.453 257.008H649.572V264.519ZM684.825 273.887C684.825 274.165 684.696 274.303 684.437 274.303H682.109C681.989 274.303 681.892 274.266 681.818 274.192C681.753 274.118 681.721 274.017 681.721 273.887V254.458C681.721 254.18 681.85 254.042 682.109 254.042H684.437C684.696 254.042 684.825 254.18 684.825 254.458V273.887ZM723.834 254.028C724.102 254.028 724.236 254.162 724.236 254.43V273.915C724.236 274.174 724.102 274.303 723.834 274.303H721.63C721.316 274.303 721.067 274.165 720.882 273.887L710.045 258.657V273.915C710.045 274.174 709.915 274.303 709.657 274.303H707.342C707.074 274.303 706.94 274.174 706.94 273.915V254.43C706.94 254.162 707.074 254.028 707.342 254.028H709.74C710.026 254.028 710.276 254.185 710.488 254.499L721.132 269.231V254.43C721.132 254.162 721.261 254.028 721.52 254.028H723.834ZM755.692 271.545C756.264 271.545 756.92 271.425 757.66 271.185C758.408 270.945 759.036 270.654 759.544 270.312V265.434C759.544 265.277 759.591 265.143 759.683 265.032C759.785 264.921 759.909 264.865 760.057 264.865H762.011C762.15 264.865 762.27 264.921 762.372 265.032C762.473 265.143 762.524 265.277 762.524 265.434V272.086C762.524 272.197 762.496 272.308 762.441 272.418C762.385 272.529 762.321 272.612 762.247 272.668C761.452 273.222 760.422 273.693 759.156 274.081C757.891 274.469 756.736 274.663 755.692 274.663C753.751 274.663 751.973 274.202 750.356 273.278C748.739 272.344 747.46 271.079 746.517 269.48C745.584 267.882 745.118 266.117 745.118 264.186C745.118 262.265 745.584 260.505 746.517 258.906C747.46 257.308 748.735 256.047 750.342 255.123C751.959 254.19 753.738 253.723 755.678 253.723C756.731 253.723 757.831 253.908 758.976 254.277C760.122 254.638 761.115 255.16 761.956 255.843C762.104 255.964 762.178 256.107 762.178 256.273C762.178 256.393 762.145 256.49 762.081 256.564L760.889 258.352C760.806 258.49 760.681 258.56 760.514 258.56C760.385 258.56 760.27 258.514 760.168 258.421C759.54 257.885 758.819 257.488 758.006 257.229C757.202 256.971 756.431 256.841 755.692 256.841C754.324 256.841 753.072 257.169 751.936 257.825C750.8 258.472 749.899 259.359 749.234 260.486C748.578 261.604 748.25 262.837 748.25 264.186C748.25 265.544 748.578 266.787 749.234 267.914C749.899 269.032 750.8 269.919 751.936 270.575C753.072 271.222 754.324 271.545 755.692 271.545Z" fill="white"/>
<defs>
<linearGradient id="paint0_linear_83_349" x1="0.267578" y1="265.289" x2="786.268" y2="265.289" gradientUnits="userSpaceOnUse">
<stop stop-color="#A5BC8E"/>
<stop offset="1" stop-color="#2D4E24"/>
</linearGradient>
</defs>
</svg>
