<svg width="842" height="311" viewBox="0 0 842 311" fill="none" xmlns="http://www.w3.org/2000/svg">
<path d="M137.394 57.24V99.24H127.594L161.754 202H172.954V244H101.274V202H107.714L104.914 193.32H69.0739L65.9939 202H72.1539V244H0.753906V202H11.9539L46.1139 99.24H37.9939V57.24H137.394ZM39.6739 59.2V97.56H48.9139L13.3539 203.96H2.71391V242.04H70.1939V203.96H63.4739L67.3939 191.36H106.034L110.234 203.96H103.234V242.04H170.994V203.96H160.634L125.074 97.56H135.434V59.2H39.6739ZM127.034 67.6V89.16H113.594L154.754 212.36H162.594V233.64H111.634V212.36H121.994L112.194 182.96H61.5139L51.7139 212.36H61.7939V233.64H11.1139V212.36H18.9539L60.1139 89.16H48.0739V67.6H127.034ZM66.5539 167.84H107.154L86.9939 106.8L66.5539 167.84ZM86.9939 133.96L95.3939 159.44H78.3139L86.9939 133.96ZM80.8339 157.76H92.8739L86.9939 139.84L80.8339 157.76ZM318.219 159.44V214.04L288.539 244H172.899V202H184.099V99.24H172.899V57.24H288.539L318.219 87.2V135.08L305.899 147.4L318.219 159.44ZM316.539 133.96V88.04L287.419 59.2H174.859V97.56H186.059V203.96H174.859V242.04H287.419L316.539 213.2V160.56L303.099 147.4L316.539 133.96ZM291.339 147.4L308.139 164.2V209L283.499 233.64H183.259V212.36H194.459V89.16H183.259V67.6H283.499L308.139 92.24V130.6L291.339 147.4ZM225.259 212.36H265.859L277.339 200.6V169.8L265.859 158.04H225.259V212.36ZM225.259 136.76H265.859L277.339 125V100.64L265.859 89.16H225.259V136.76ZM233.659 166.44H261.939L268.939 173.16V196.96L261.939 203.96H233.659V166.44ZM233.659 97.56H261.939L268.939 104.28V121.36L261.939 128.36H233.659V97.56ZM266.979 105.4L261.099 99.24H235.339V126.4H261.099L266.979 120.24V105.4ZM266.979 174.56L261.099 168.4H235.339V202H261.099L266.979 195.84V174.56ZM380.414 202H413.174V194.44H455.174V244H317.974V202H329.174V99.24H317.974V57.24H455.174V106.8H413.174V99.24H380.414V129.76H387.974V122.2H429.974V179.04H387.974V171.76H380.414V202ZM378.734 169.8H389.934V177.36H428.014V124.16H389.934V131.44H378.734V97.56H415.134V104.84H453.214V59.2H319.934V97.56H331.134V203.96H319.934V242.04H453.214V196.4H415.134V203.96H378.734V169.8ZM444.814 204.8V233.64H328.334V212.36H339.534V89.16H328.334V67.6H444.814V96.44H423.534V89.16H370.334V139.84H398.334V132.56H419.614V168.96H398.334V161.4H370.334V212.36H423.534V204.8H444.814ZM539.68 172.04H485.08L455.12 142.36V87.2L485.08 57.24H567.12L597.08 87.2V124.16H545.56V105.4L539.68 99.24H512.52L506.36 105.4V124.16L512.52 130.04H567.12L597.08 160V214.04L567.12 244H485.08L455.12 214.04V178.2H506.36V195.84L512.52 202H539.68L545.56 195.84V178.2L539.68 172.04ZM547.52 177.08V196.96L540.8 203.96H511.4L504.68 196.96V180.16H457.08V213.2L485.92 242.04H566.28L595.12 213.2V160.84L566.28 132H511.4L504.68 125.28V104.28L511.4 97.56H540.8L547.52 104.28V122.2H595.12V88.04L566.28 59.2H485.92L457.08 88.04V141.24L485.92 170.36H540.8L547.52 177.08ZM544.16 161.96H490.12L465.48 137.04V92.24L490.12 67.6H562.08L586.72 92.24V113.8H555.92V100.64L544.16 89.16H507.76L496.28 100.64V128.64L507.76 140.4H562.08L586.72 165.04V209L562.08 233.64H490.12L465.48 209V188.56H496.28V200.6L507.76 212.36H544.16L555.92 200.6V173.44L544.16 161.96ZM670.827 244H597.187V202H608.387V99.24H597.187V57.24H670.827V99.24H659.627V202H670.827V244ZM669.147 203.96H657.947V97.56H669.147V59.2H599.147V97.56H610.347V203.96H599.147V242.04H669.147V203.96ZM660.747 233.64H607.547V212.36H618.747V89.16H607.547V67.6H660.747V89.16H649.547V212.36H660.747V233.64ZM828.535 110.44H786.535V99.24H775.335V201.72H786.535V243.72H712.895V201.72H724.095V99.24H712.895V110.44H670.895V57.24H828.535V110.44ZM788.215 108.76H826.575V59.2H672.855V108.76H710.935V97.56H726.055V203.68H714.855V241.76H784.575V203.68H773.375V97.56H788.215V108.76ZM796.615 100.36V89.16H764.975V212.08H776.175V233.36H723.255V212.08H734.455V89.16H702.535V100.36H681.255V67.6H818.175V100.36H796.615Z" fill="white"/>
<path d="M1 243.707H787V285.707H1V243.707Z" fill="url(#paint0_linear_50_39)"/>
<path d="M59.0409 271.545C59.6138 271.545 60.2697 271.425 61.0089 271.185C61.7572 270.945 62.3855 270.654 62.8936 270.312V265.434C62.8936 265.277 62.9398 265.143 63.0322 265.032C63.1339 264.921 63.2586 264.865 63.4064 264.865H65.3605C65.4991 264.865 65.6192 264.921 65.7208 265.032C65.8224 265.143 65.8733 265.277 65.8733 265.434V272.086C65.8733 272.197 65.8455 272.308 65.7901 272.418C65.7347 272.529 65.67 272.612 65.5961 272.668C64.8015 273.222 63.7714 273.693 62.5056 274.081C61.2398 274.469 60.085 274.663 59.0409 274.663C57.1007 274.663 55.3222 274.202 53.7054 273.278C52.0885 272.344 50.8089 271.079 49.8665 269.48C48.9334 267.882 48.4668 266.117 48.4668 264.186C48.4668 262.265 48.9334 260.505 49.8665 258.906C50.8089 257.308 52.0839 256.047 53.6915 255.123C55.3083 254.19 57.0869 253.723 59.0271 253.723C60.0803 253.723 61.1798 253.908 62.3254 254.277C63.4711 254.638 64.4643 255.16 65.305 255.843C65.4529 255.964 65.5268 256.107 65.5268 256.273C65.5268 256.393 65.4944 256.49 65.4298 256.564L64.2379 258.352C64.1548 258.49 64.0301 258.56 63.8637 258.56C63.7344 258.56 63.6189 258.514 63.5173 258.421C62.889 257.885 62.1684 257.488 61.3553 257.229C60.5515 256.971 59.7801 256.841 59.0409 256.841C57.6736 256.841 56.4217 257.169 55.2852 257.825C54.1488 258.472 53.248 259.359 52.5828 260.486C51.9268 261.604 51.5988 262.837 51.5988 264.186C51.5988 265.544 51.9268 266.787 52.5828 267.914C53.248 269.032 54.1488 269.919 55.2852 270.575C56.4217 271.222 57.6736 271.545 59.0409 271.545ZM101.265 273.707C101.302 273.772 101.32 273.841 101.32 273.915C101.32 274.026 101.283 274.118 101.209 274.192C101.136 274.266 101.039 274.303 100.918 274.303H98.3823C98.253 274.303 98.1421 274.271 98.0497 274.206C97.9666 274.141 97.8788 274.031 97.7864 273.874L94.4187 267.485H94.1831H90.3027V273.777C90.3027 273.943 90.2565 274.072 90.1641 274.165C90.081 274.257 89.9563 274.303 89.79 274.303H87.6973C87.3647 274.303 87.1984 274.128 87.1984 273.777V254.568C87.1984 254.411 87.2446 254.287 87.337 254.194C87.4294 254.093 87.5495 254.042 87.6973 254.042H88.2378H89.8592H94.1831C95.5321 254.042 96.7378 254.324 97.8003 254.887C98.8627 255.451 99.6896 256.245 100.281 257.271C100.872 258.296 101.168 259.47 101.168 260.791C101.168 262.158 100.845 263.364 100.198 264.408C99.5603 265.443 98.678 266.228 97.5508 266.764L101.265 273.707ZM90.3027 264.519H94.1831C94.9223 264.519 95.5829 264.357 96.1649 264.034C96.7562 263.711 97.2136 263.267 97.5369 262.703C97.8695 262.14 98.0358 261.502 98.0358 260.791C98.0358 260.061 97.8695 259.41 97.5369 258.837C97.2136 258.264 96.7562 257.816 96.1649 257.493C95.5829 257.169 94.9223 257.008 94.1831 257.008H90.3027V264.519ZM121.218 264.214C121.218 262.283 121.68 260.518 122.604 258.92C123.537 257.312 124.803 256.047 126.401 255.123C128.009 254.19 129.773 253.723 131.695 253.723C133.617 253.723 135.377 254.19 136.975 255.123C138.583 256.047 139.849 257.312 140.773 258.92C141.706 260.518 142.172 262.283 142.172 264.214C142.172 266.136 141.706 267.896 140.773 269.494C139.849 271.083 138.583 272.34 136.975 273.264C135.377 274.188 133.617 274.65 131.695 274.65C129.773 274.65 128.009 274.188 126.401 273.264C124.803 272.34 123.537 271.083 122.604 269.494C121.68 267.896 121.218 266.136 121.218 264.214ZM124.35 264.214C124.35 265.563 124.673 266.796 125.32 267.914C125.967 269.032 126.849 269.915 127.967 270.561C129.094 271.208 130.337 271.531 131.695 271.531C133.044 271.531 134.278 271.208 135.395 270.561C136.523 269.915 137.41 269.032 138.056 267.914C138.712 266.796 139.04 265.563 139.04 264.214C139.04 262.865 138.712 261.627 138.056 260.5C137.41 259.373 136.523 258.486 135.395 257.839C134.278 257.183 133.044 256.855 131.695 256.855C130.337 256.855 129.094 257.183 127.967 257.839C126.849 258.486 125.967 259.373 125.32 260.5C124.673 261.627 124.35 262.865 124.35 264.214ZM165.465 266.182C165.465 267.226 165.682 268.164 166.117 268.995C166.551 269.818 167.161 270.464 167.946 270.936C168.741 271.407 169.651 271.642 170.676 271.642C171.702 271.642 172.607 271.407 173.393 270.936C174.178 270.464 174.783 269.818 175.208 268.995C175.642 268.164 175.859 267.226 175.859 266.182V254.458C175.859 254.171 176.003 254.028 176.289 254.028H178.548C178.834 254.028 178.978 254.171 178.978 254.458V266.21C178.978 267.9 178.631 269.388 177.938 270.672C177.254 271.947 176.284 272.936 175.028 273.638C173.771 274.34 172.321 274.691 170.676 274.691C168.976 274.691 167.498 274.34 166.241 273.638C164.985 272.936 164.019 271.943 163.345 270.658C162.68 269.365 162.347 267.864 162.347 266.154V254.458C162.347 254.171 162.477 254.028 162.735 254.028H165.077C165.336 254.028 165.465 254.171 165.465 254.458V266.182ZM207.177 254.042C208.535 254.042 209.74 254.324 210.794 254.887C211.856 255.451 212.683 256.245 213.274 257.271C213.866 258.296 214.161 259.474 214.161 260.805C214.161 262.117 213.866 263.281 213.274 264.297C212.683 265.314 211.856 266.103 210.794 266.667C209.74 267.221 208.535 267.499 207.177 267.499H203.518V273.777C203.518 273.943 203.472 274.072 203.379 274.165C203.296 274.257 203.171 274.303 203.005 274.303H200.912C200.58 274.303 200.414 274.128 200.414 273.777V254.568C200.414 254.411 200.46 254.287 200.552 254.194C200.645 254.093 200.765 254.042 200.912 254.042H201.966H203.074H207.177ZM207.177 264.519C207.916 264.519 208.576 264.357 209.158 264.034C209.75 263.711 210.212 263.267 210.544 262.703C210.877 262.14 211.043 261.502 211.043 260.791C211.043 260.07 210.877 259.424 210.544 258.851C210.221 258.278 209.764 257.83 209.172 257.506C208.581 257.183 207.916 257.021 207.177 257.021H203.518V264.519H207.177ZM257.324 264.214C257.324 262.283 257.786 260.518 258.71 258.92C259.643 257.312 260.909 256.047 262.508 255.123C264.115 254.19 265.88 253.723 267.802 253.723C269.723 253.723 271.483 254.19 273.082 255.123C274.689 256.047 275.955 257.312 276.879 258.92C277.812 260.518 278.279 262.283 278.279 264.214C278.279 266.136 277.812 267.896 276.879 269.494C275.955 271.083 274.689 272.34 273.082 273.264C271.483 274.188 269.723 274.65 267.802 274.65C265.88 274.65 264.115 274.188 262.508 273.264C260.909 272.34 259.643 271.083 258.71 269.494C257.786 267.896 257.324 266.136 257.324 264.214ZM260.456 264.214C260.456 265.563 260.78 266.796 261.427 267.914C262.073 269.032 262.956 269.915 264.074 270.561C265.201 271.208 266.443 271.531 267.802 271.531C269.15 271.531 270.384 271.208 271.502 270.561C272.629 269.915 273.516 269.032 274.163 267.914C274.819 266.796 275.147 265.563 275.147 264.214C275.147 262.865 274.819 261.627 274.163 260.5C273.516 259.373 272.629 258.486 271.502 257.839C270.384 257.183 269.15 256.855 267.802 256.855C266.443 256.855 265.201 257.183 264.074 257.839C262.956 258.486 262.073 259.373 261.427 260.5C260.78 261.627 260.456 262.865 260.456 264.214ZM299.133 254.568C299.133 254.217 299.304 254.042 299.645 254.042H312.16C312.335 254.042 312.469 254.088 312.562 254.18C312.663 254.264 312.714 254.388 312.714 254.555V256.412C312.714 256.578 312.663 256.707 312.562 256.8C312.469 256.892 312.335 256.938 312.16 256.938H302.251V263.646H310.233C310.418 263.646 310.561 263.692 310.663 263.784C310.765 263.877 310.815 264.006 310.815 264.172V265.877C310.815 266.043 310.765 266.173 310.663 266.265C310.561 266.358 310.418 266.404 310.233 266.404H302.251V273.763C302.251 274.114 302.08 274.289 301.738 274.289H299.645C299.304 274.289 299.133 274.114 299.133 273.763V254.568ZM360.298 273.887C360.298 274.165 360.169 274.303 359.91 274.303H357.582C357.462 274.303 357.365 274.266 357.291 274.192C357.226 274.118 357.194 274.017 357.194 273.887V254.458C357.194 254.18 357.323 254.042 357.582 254.042H359.91C360.169 254.042 360.298 254.18 360.298 254.458V273.887ZM399.307 254.028C399.575 254.028 399.709 254.162 399.709 254.43V273.915C399.709 274.174 399.575 274.303 399.307 274.303H397.103C396.789 274.303 396.54 274.165 396.355 273.887L385.517 258.657V273.915C385.517 274.174 385.388 274.303 385.129 274.303H382.815C382.547 274.303 382.413 274.174 382.413 273.915V254.43C382.413 254.162 382.547 254.028 382.815 254.028H385.213C385.499 254.028 385.748 254.185 385.961 254.499L396.604 269.231V254.43C396.604 254.162 396.734 254.028 396.992 254.028H399.307ZM421.02 272.072C420.817 271.933 420.715 271.776 420.715 271.601C420.715 271.49 420.757 271.374 420.84 271.254L421.976 269.605C422.096 269.448 422.23 269.369 422.378 269.369C422.498 269.369 422.632 269.416 422.78 269.508C423.427 270.035 424.235 270.478 425.205 270.839C426.175 271.199 427.21 271.379 428.31 271.379C429.178 271.379 429.963 271.264 430.666 271.033C431.377 270.802 431.936 270.464 432.342 270.021C432.758 269.577 432.966 269.041 432.966 268.413C432.966 267.803 432.731 267.295 432.259 266.889C431.797 266.473 431.229 266.145 430.555 265.905C429.88 265.665 429.026 265.411 427.991 265.143C426.577 264.764 425.409 264.353 424.485 263.909C423.561 263.466 422.835 262.888 422.309 262.177C421.791 261.465 421.533 260.574 421.533 259.502C421.533 258.329 421.833 257.317 422.434 256.467C423.043 255.608 423.889 254.956 424.97 254.513C426.051 254.06 427.293 253.834 428.698 253.834C429.917 253.834 431.091 254.005 432.218 254.347C433.345 254.679 434.31 255.155 435.114 255.774C435.271 255.904 435.35 256.047 435.35 256.204C435.35 256.315 435.308 256.435 435.225 256.564L434.075 258.213C433.955 258.38 433.811 258.463 433.645 258.463C433.544 258.463 433.41 258.417 433.243 258.324C432.698 257.992 432.218 257.733 431.802 257.548C431.386 257.354 430.929 257.211 430.43 257.118C429.94 257.017 429.363 256.966 428.698 256.966C427.968 256.966 427.293 257.072 426.674 257.285C426.064 257.488 425.575 257.784 425.205 258.172C424.845 258.551 424.665 258.994 424.665 259.502C424.665 260.047 424.868 260.505 425.275 260.874C425.681 261.234 426.166 261.516 426.73 261.72C427.303 261.923 428.028 262.135 428.906 262.357C430.476 262.8 431.76 263.249 432.758 263.701C433.756 264.145 434.564 264.75 435.183 265.517C435.803 266.274 436.112 267.24 436.112 268.413C436.112 269.661 435.766 270.746 435.073 271.67C434.389 272.585 433.456 273.287 432.273 273.777C431.091 274.257 429.769 274.497 428.31 274.497C426.887 274.497 425.603 274.299 424.457 273.901C423.311 273.504 422.166 272.894 421.02 272.072ZM455.386 254.555C455.386 254.388 455.432 254.264 455.525 254.18C455.617 254.088 455.746 254.042 455.913 254.042H469.148C469.305 254.042 469.43 254.088 469.522 254.18C469.614 254.273 469.66 254.398 469.66 254.555V256.55C469.66 256.717 469.614 256.851 469.522 256.952C469.43 257.045 469.305 257.091 469.148 257.091H464.103V273.887C464.103 274.063 464.057 274.197 463.965 274.289C463.872 274.372 463.743 274.414 463.577 274.414H461.498C461.331 274.414 461.202 274.372 461.11 274.289C461.017 274.197 460.971 274.063 460.971 273.887V257.091H455.913C455.756 257.091 455.626 257.045 455.525 256.952C455.432 256.86 455.386 256.73 455.386 256.564V254.555ZM493.245 273.887C493.245 274.165 493.115 274.303 492.857 274.303H490.528C490.408 274.303 490.311 274.266 490.237 274.192C490.173 274.118 490.14 274.017 490.14 273.887V254.458C490.14 254.18 490.27 254.042 490.528 254.042H492.857C493.115 254.042 493.245 254.18 493.245 254.458V273.887ZM513.724 254.555C513.724 254.388 513.771 254.264 513.863 254.18C513.955 254.088 514.085 254.042 514.251 254.042H527.486C527.643 254.042 527.768 254.088 527.86 254.18C527.953 254.273 527.999 254.398 527.999 254.555V256.55C527.999 256.717 527.953 256.851 527.86 256.952C527.768 257.045 527.643 257.091 527.486 257.091H522.441V273.887C522.441 274.063 522.395 274.197 522.303 274.289C522.21 274.372 522.081 274.414 521.915 274.414H519.836C519.67 274.414 519.54 274.372 519.448 274.289C519.356 274.197 519.309 274.063 519.309 273.887V257.091H514.251C514.094 257.091 513.965 257.045 513.863 256.952C513.771 256.86 513.724 256.73 513.724 256.564V254.555ZM550.918 266.182C550.918 267.226 551.135 268.164 551.569 268.995C552.003 269.818 552.613 270.464 553.398 270.936C554.193 271.407 555.103 271.642 556.128 271.642C557.154 271.642 558.059 271.407 558.845 270.936C559.63 270.464 560.235 269.818 560.66 268.995C561.094 268.164 561.312 267.226 561.312 266.182V254.458C561.312 254.171 561.455 254.028 561.741 254.028H564C564.287 254.028 564.43 254.171 564.43 254.458V266.21C564.43 267.9 564.083 269.388 563.39 270.672C562.707 271.947 561.737 272.936 560.48 273.638C559.224 274.34 557.773 274.691 556.128 274.691C554.428 274.691 552.95 274.34 551.694 273.638C550.437 272.936 549.472 271.943 548.797 270.658C548.132 269.365 547.799 267.864 547.799 266.154V254.458C547.799 254.171 547.929 254.028 548.187 254.028H550.53C550.788 254.028 550.918 254.171 550.918 254.458V266.182ZM584.231 254.555C584.231 254.388 584.277 254.264 584.369 254.18C584.461 254.088 584.591 254.042 584.757 254.042H597.992C598.149 254.042 598.274 254.088 598.366 254.18C598.459 254.273 598.505 254.398 598.505 254.555V256.55C598.505 256.717 598.459 256.851 598.366 256.952C598.274 257.045 598.149 257.091 597.992 257.091H592.948V273.887C592.948 274.063 592.901 274.197 592.809 274.289C592.717 274.372 592.587 274.414 592.421 274.414H590.342C590.176 274.414 590.047 274.372 589.954 274.289C589.862 274.197 589.816 274.063 589.816 273.887V257.091H584.757C584.6 257.091 584.471 257.045 584.369 256.952C584.277 256.86 584.231 256.73 584.231 256.564V254.555ZM622.089 273.887C622.089 274.165 621.96 274.303 621.701 274.303H619.373C619.253 274.303 619.156 274.266 619.082 274.192C619.017 274.118 618.985 274.017 618.985 273.887V254.458C618.985 254.18 619.114 254.042 619.373 254.042H621.701C621.96 254.042 622.089 254.18 622.089 254.458V273.887ZM642.971 264.214C642.971 262.283 643.433 260.518 644.357 258.92C645.29 257.312 646.555 256.047 648.154 255.123C649.761 254.19 651.526 253.723 653.448 253.723C655.37 253.723 657.13 254.19 658.728 255.123C660.336 256.047 661.601 257.312 662.525 258.92C663.458 260.518 663.925 262.283 663.925 264.214C663.925 266.136 663.458 267.896 662.525 269.494C661.601 271.083 660.336 272.34 658.728 273.264C657.13 274.188 655.37 274.65 653.448 274.65C651.526 274.65 649.761 274.188 648.154 273.264C646.555 272.34 645.29 271.083 644.357 269.494C643.433 267.896 642.971 266.136 642.971 264.214ZM646.103 264.214C646.103 265.563 646.426 266.796 647.073 267.914C647.72 269.032 648.602 269.915 649.72 270.561C650.847 271.208 652.09 271.531 653.448 271.531C654.797 271.531 656.03 271.208 657.148 270.561C658.275 269.915 659.162 269.032 659.809 267.914C660.465 266.796 660.793 265.563 660.793 264.214C660.793 262.865 660.465 261.627 659.809 260.5C659.162 259.373 658.275 258.486 657.148 257.839C656.03 257.183 654.797 256.855 653.448 256.855C652.09 256.855 650.847 257.183 649.72 257.839C648.602 258.486 647.72 259.373 647.073 260.5C646.426 261.627 646.103 262.865 646.103 264.214ZM701.672 254.028C701.94 254.028 702.074 254.162 702.074 254.43V273.915C702.074 274.174 701.94 274.303 701.672 274.303H699.469C699.155 274.303 698.905 274.165 698.721 273.887L687.883 258.657V273.915C687.883 274.174 687.754 274.303 687.495 274.303H685.181C684.913 274.303 684.779 274.174 684.779 273.915V254.43C684.779 254.162 684.913 254.028 685.181 254.028H687.578C687.865 254.028 688.114 254.185 688.327 254.499L698.97 269.231V254.43C698.97 254.162 699.099 254.028 699.358 254.028H701.672ZM723.386 272.072C723.182 271.933 723.081 271.776 723.081 271.601C723.081 271.49 723.122 271.374 723.206 271.254L724.342 269.605C724.462 269.448 724.596 269.369 724.744 269.369C724.864 269.369 724.998 269.416 725.146 269.508C725.793 270.035 726.601 270.478 727.571 270.839C728.541 271.199 729.576 271.379 730.675 271.379C731.544 271.379 732.329 271.264 733.031 271.033C733.743 270.802 734.302 270.464 734.708 270.021C735.124 269.577 735.332 269.041 735.332 268.413C735.332 267.803 735.096 267.295 734.625 266.889C734.163 266.473 733.595 266.145 732.921 265.905C732.246 265.665 731.391 265.411 730.357 265.143C728.943 264.764 727.774 264.353 726.85 263.909C725.927 263.466 725.201 262.888 724.675 262.177C724.157 261.465 723.899 260.574 723.899 259.502C723.899 258.329 724.199 257.317 724.799 256.467C725.409 255.608 726.254 254.956 727.335 254.513C728.416 254.06 729.659 253.834 731.063 253.834C732.283 253.834 733.456 254.005 734.584 254.347C735.711 254.679 736.676 255.155 737.48 255.774C737.637 255.904 737.716 256.047 737.716 256.204C737.716 256.315 737.674 256.435 737.591 256.564L736.441 258.213C736.32 258.38 736.177 258.463 736.011 258.463C735.909 258.463 735.775 258.417 735.609 258.324C735.064 257.992 734.584 257.733 734.168 257.548C733.752 257.354 733.295 257.211 732.796 257.118C732.306 257.017 731.729 256.966 731.063 256.966C730.334 256.966 729.659 257.072 729.04 257.285C728.43 257.488 727.941 257.784 727.571 258.172C727.211 258.551 727.031 258.994 727.031 259.502C727.031 260.047 727.234 260.505 727.64 260.874C728.047 261.234 728.532 261.516 729.096 261.72C729.668 261.923 730.394 262.135 731.271 262.357C732.842 262.8 734.126 263.249 735.124 263.701C736.122 264.145 736.93 264.75 737.549 265.517C738.168 266.274 738.478 267.24 738.478 268.413C738.478 269.661 738.131 270.746 737.438 271.67C736.755 272.585 735.822 273.287 734.639 273.777C733.456 274.257 732.135 274.497 730.675 274.497C729.253 274.497 727.968 274.299 726.823 273.901C725.677 273.504 724.531 272.894 723.386 272.072Z" fill="white"/>
<defs>
<linearGradient id="paint0_linear_50_39" x1="1" y1="265.289" x2="787" y2="265.289" gradientUnits="userSpaceOnUse">
<stop stop-color="#A5BC8E"/>
<stop offset="1" stop-color="#2D4E24"/>
</linearGradient>
</defs>
</svg>
