<svg width="656" height="138" viewBox="0 0 656 138" fill="none" xmlns="http://www.w3.org/2000/svg">
<path d="M0.745561 135.974V6.58942H54.3347C76.7247 6.58942 94.0983 12.2175 106.456 23.4737C118.813 34.7298 124.992 50.6353 124.992 71.19C124.992 91.7447 118.813 107.711 106.456 119.09C94.0983 130.346 76.7247 135.974 54.3347 135.974H0.745561ZM34.514 108.629H52.1324C64.9791 108.629 74.4612 105.57 80.5787 99.4528C86.8185 93.2129 89.9384 83.792 89.9384 71.19C89.9384 58.588 86.8185 49.2283 80.5787 43.1108C74.3388 36.9933 64.8567 33.9346 52.1324 33.9346H34.514V108.629ZM141.9 30.0805V0.53312H176.219V30.0805H141.9ZM142.818 135.974V45.6801H175.485V135.974H142.818ZM230.405 137.993C222.085 137.993 214.377 137.136 207.281 135.424C200.307 133.711 194.373 131.325 189.479 128.266L197.003 107.161C201.53 109.73 206.791 111.871 212.786 113.584C218.782 115.175 224.716 115.97 230.588 115.97C235.115 115.97 238.358 115.358 240.315 114.135C242.273 112.789 243.252 111.076 243.252 108.996C243.252 107.161 242.579 105.815 241.233 104.958C240.009 103.98 238.235 103.246 235.911 102.756L215.539 99.4528C207.954 98.2293 202.081 95.4764 197.921 91.1942C193.761 86.9119 191.681 81.345 191.681 74.4935C191.681 68.1313 193.455 62.6867 197.003 58.1598C200.552 53.5105 205.507 49.9624 211.869 47.5154C218.231 44.946 225.511 43.6614 233.708 43.6614C240.193 43.6614 246.616 44.4566 252.978 46.0472C259.341 47.5154 264.907 49.9624 269.679 53.3881L261.604 74.1264C258.056 71.6794 253.651 69.6606 248.39 68.0701C243.129 66.3572 238.419 65.5008 234.259 65.5008C229.243 65.5008 225.694 66.2349 223.614 67.703C221.534 69.0489 220.495 70.7006 220.495 72.6582C220.495 75.9616 222.758 77.9804 227.285 78.7145L247.656 82.2015C255.486 83.425 261.482 86.1167 265.642 90.2765C269.924 94.3141 272.065 99.8198 272.065 106.794C272.065 116.704 268.272 124.412 260.686 129.918C253.101 135.301 243.007 137.993 230.405 137.993ZM331.544 137.993C321.389 137.993 312.519 136.096 304.933 132.304C297.47 128.511 291.658 123.066 287.498 115.97C283.338 108.874 281.258 100.432 281.258 90.6436C281.258 80.8556 283.338 72.4747 287.498 65.5008C291.658 58.4045 297.47 53.0211 304.933 49.3506C312.519 45.5578 321.389 43.6614 331.544 43.6614C337.539 43.6614 343.473 44.5178 349.346 46.2307C355.341 47.8212 360.235 50.0847 364.028 53.0211L355.402 75.4111C352.588 73.2088 349.285 71.4959 345.492 70.2724C341.821 68.9265 338.334 68.2536 335.031 68.2536C328.546 68.2536 323.53 70.2112 319.982 74.1264C316.434 78.0416 314.66 83.5473 314.66 90.6436C314.66 97.8622 316.434 103.49 319.982 107.528C323.53 111.443 328.546 113.401 335.031 113.401C338.334 113.401 341.821 112.789 345.492 111.565C349.285 110.22 352.588 108.445 355.402 106.243L364.028 128.633C360.235 131.57 355.341 133.894 349.346 135.607C343.351 137.198 337.417 137.993 331.544 137.993ZM418.279 137.993C408.247 137.993 399.499 136.096 392.035 132.304C384.572 128.511 378.76 123.066 374.6 115.97C370.441 108.874 368.361 100.493 368.361 90.8271C368.361 81.0392 370.441 72.6582 374.6 65.6843C378.76 58.588 384.572 53.1434 392.035 49.3506C399.499 45.5578 408.247 43.6614 418.279 43.6614C428.312 43.6614 437.06 45.5578 444.523 49.3506C451.987 53.1434 457.737 58.588 461.775 65.6843C465.934 72.6582 468.014 81.0392 468.014 90.8271C468.014 100.493 465.934 108.874 461.775 115.97C457.737 123.066 451.987 128.511 444.523 132.304C437.06 136.096 428.312 137.993 418.279 137.993ZM418.279 113.951C423.173 113.951 427.211 112.116 430.392 108.445C433.573 104.775 435.164 98.9022 435.164 90.8271C435.164 82.6297 433.573 76.7569 430.392 73.2088C427.211 69.5383 423.173 67.703 418.279 67.703C413.263 67.703 409.164 69.5383 405.983 73.2088C402.802 76.7569 401.212 82.6297 401.212 90.8271C401.212 98.9022 402.802 104.775 405.983 108.445C409.164 112.116 413.263 113.951 418.279 113.951ZM482.983 135.974V45.6801H514.733V60.9126C518.893 50.5129 527.885 44.8237 541.711 43.8449L550.704 43.1108L552.539 70.6394L534.737 72.2912C528.252 72.9029 523.542 74.7382 520.606 77.7969C517.669 80.7333 516.201 85.1379 516.201 91.0106V135.974H482.983ZM596.182 137.993C588.474 137.993 581.622 136.096 575.627 132.304C569.754 128.511 565.105 123.066 561.679 115.97C558.376 108.874 556.724 100.493 556.724 90.8271C556.724 81.0392 558.376 72.6582 561.679 65.6843C565.105 58.588 569.754 53.1434 575.627 49.3506C581.622 45.5578 588.474 43.6614 596.182 43.6614C601.932 43.6614 607.193 44.8848 611.965 47.3318C616.859 49.6565 620.591 52.7152 623.16 56.5081V6.58942H655.827V135.974H623.894V123.494C621.569 127.899 617.899 131.447 612.883 134.139C607.866 136.708 602.299 137.993 596.182 137.993ZM606.643 113.951C611.537 113.951 615.574 112.116 618.755 108.445C621.936 104.775 623.527 98.9022 623.527 90.8271C623.527 82.6297 621.936 76.7569 618.755 73.2088C615.574 69.5383 611.537 67.703 606.643 67.703C601.626 67.703 597.528 69.5383 594.347 73.2088C591.165 76.7569 589.575 82.6297 589.575 90.8271C589.575 98.9022 591.165 104.775 594.347 108.445C597.528 112.116 601.626 113.951 606.643 113.951Z" fill="black"/>
</svg>
