<svg width="889" height="187" viewBox="0 0 889 187" fill="none" xmlns="http://www.w3.org/2000/svg">
<path d="M0.95548 184V8.75172H73.5406C103.867 8.75172 127.399 16.3748 144.137 31.621C160.875 46.8672 169.244 68.4107 169.244 96.2516C169.244 124.092 160.875 145.719 144.137 161.131C127.399 176.377 103.867 184 73.5406 184H0.95548ZM46.694 146.962H70.5576C87.9582 146.962 100.801 142.819 109.087 134.533C117.539 126.081 121.765 113.321 121.765 96.2516C121.765 79.1825 117.539 66.5049 109.087 58.219C100.636 49.933 87.7924 45.79 70.5576 45.79H46.694V146.962ZM192.146 40.5699V0.548614H238.63V40.5699H192.146ZM193.389 184V61.6991H237.636V184H193.389ZM312.023 186.734C300.754 186.734 290.314 185.574 280.702 183.254C271.256 180.934 263.219 177.703 256.59 173.56L266.782 144.973C272.913 148.453 280.039 151.353 288.159 153.673C296.28 155.828 304.317 156.905 312.272 156.905C318.403 156.905 322.795 156.076 325.446 154.419C328.098 152.596 329.424 150.276 329.424 147.459C329.424 144.973 328.512 143.15 326.689 141.99C325.032 140.664 322.629 139.67 319.48 139.007L291.888 134.533C281.614 132.876 273.659 129.147 268.025 123.347C262.39 117.547 259.573 110.006 259.573 100.726C259.573 92.1086 261.976 84.7341 266.782 78.6025C271.588 72.3051 278.299 67.4993 286.917 64.1849C295.534 60.7048 305.394 58.9647 316.497 58.9647C325.281 58.9647 333.981 60.0419 342.598 62.1962C351.216 64.1849 358.756 67.4993 365.219 72.1394L354.282 100.229C349.476 96.9144 343.51 94.1801 336.384 92.0257C329.258 89.7057 322.878 88.5456 317.243 88.5456C310.449 88.5456 305.643 89.5399 302.826 91.5286C300.008 93.3515 298.6 95.5887 298.6 98.2402C298.6 102.715 301.666 105.449 307.797 106.443L335.39 111.166C345.996 112.824 354.116 116.469 359.75 122.104C365.55 127.573 368.451 135.03 368.451 144.476C368.451 157.899 363.313 168.34 353.039 175.797C342.764 183.089 329.092 186.734 312.023 186.734ZM449.013 186.734C435.259 186.734 423.244 184.166 412.97 179.028C402.861 173.891 394.989 166.517 389.354 156.905C383.72 147.293 380.903 135.859 380.903 122.601C380.903 109.343 383.72 97.9916 389.354 88.5456C394.989 78.9339 402.861 71.6422 412.97 66.6707C423.244 61.5334 435.259 58.9647 449.013 58.9647C457.134 58.9647 465.171 60.1247 473.126 62.4448C481.246 64.5992 487.875 67.665 493.012 71.6422L481.329 101.969C477.517 98.9859 473.043 96.6659 467.905 95.0087C462.934 93.1858 458.211 92.2743 453.736 92.2743C444.953 92.2743 438.159 94.9258 433.353 100.229C428.547 105.532 426.144 112.989 426.144 122.601C426.144 132.378 428.547 140.001 433.353 145.47C438.159 150.773 444.953 153.425 453.736 153.425C458.211 153.425 462.934 152.596 467.905 150.939C473.043 149.116 477.517 146.713 481.329 143.73L493.012 174.057C487.875 178.034 481.246 181.183 473.126 183.503C465.005 185.657 456.968 186.734 449.013 186.734ZM566.494 186.734C552.905 186.734 541.056 184.166 530.947 179.028C520.839 173.891 512.967 166.517 507.332 156.905C501.698 147.293 498.881 135.941 498.881 122.85C498.881 109.592 501.698 98.2402 507.332 88.7942C512.967 79.1825 520.839 71.808 530.947 66.6707C541.056 61.5334 552.905 58.9647 566.494 58.9647C580.083 58.9647 591.932 61.5334 602.041 66.6707C612.15 71.808 619.939 79.1825 625.408 88.7942C631.042 98.2402 633.859 109.592 633.859 122.85C633.859 135.941 631.042 147.293 625.408 156.905C619.939 166.517 612.15 173.891 602.041 179.028C591.932 184.166 580.083 186.734 566.494 186.734ZM566.494 154.171C573.123 154.171 578.592 151.685 582.901 146.713C587.209 141.742 589.364 133.787 589.364 122.85C589.364 111.746 587.209 103.792 582.901 98.9859C578.592 94.0144 573.123 91.5286 566.494 91.5286C559.7 91.5286 554.148 94.0144 549.84 98.9859C545.531 103.792 543.376 111.746 543.376 122.85C543.376 133.787 545.531 141.742 549.84 146.713C554.148 151.685 559.7 154.171 566.494 154.171ZM654.134 184V61.6991H697.138V82.3311C702.773 68.245 714.953 60.539 733.679 59.2133L745.86 58.219L748.345 95.5058L724.233 97.7431C715.45 98.5716 709.07 101.057 705.093 105.2C701.115 109.178 699.127 115.144 699.127 123.098V184H654.134ZM807.459 186.734C797.018 186.734 787.738 184.166 779.618 179.028C771.663 173.891 765.366 166.517 760.726 156.905C756.251 147.293 754.014 135.941 754.014 122.85C754.014 109.592 756.251 98.2402 760.726 88.7942C765.366 79.1825 771.663 71.808 779.618 66.6707C787.738 61.5334 797.018 58.9647 807.459 58.9647C815.248 58.9647 822.373 60.6219 828.837 63.9363C835.465 67.085 840.52 71.2279 844 76.3652V8.75172H888.247V184H844.994V167.097C841.846 173.063 836.874 177.868 830.079 181.514C823.285 184.994 815.745 186.734 807.459 186.734ZM821.628 154.171C828.257 154.171 833.725 151.685 838.034 146.713C842.343 141.742 844.497 133.787 844.497 122.85C844.497 111.746 842.343 103.792 838.034 98.9859C833.725 94.0144 828.257 91.5286 821.628 91.5286C814.833 91.5286 809.282 94.0144 804.973 98.9859C800.664 103.792 798.51 111.746 798.51 122.85C798.51 133.787 800.664 141.742 804.973 146.713C809.282 151.685 814.833 154.171 821.628 154.171Z" fill="white"/>
</svg>
