<svg width="389" height="357" viewBox="0 0 389 357" fill="none" xmlns="http://www.w3.org/2000/svg">
<path d="M226.112 138.567C220.86 149.883 217.134 157.981 217.134 157.947C212.593 154.525 207.85 150.933 202.971 147.173C202.971 147.173 206.393 139.99 210.764 130.097C219.607 108.921 234.548 77.8186 219.505 63.6226C199.143 41.8711 114.238 35.1966 92.8926 49.8331C90.9275 50.8834 89.4029 52.0014 88.4542 53.1195C79.8146 63.4193 91.944 98.2826 97.5004 115.155C99.4316 120.746 100.753 124.303 100.753 124.303C100.719 124.303 101.939 145.953 97.4665 141.311C96.2129 140.058 92.7571 132.401 88.2848 121.626C79.2725 99.3329 65.0087 64.3679 62.7048 43.0908C62.637 42.4471 62.5693 41.8033 62.5354 41.1935C62.1288 35.5354 62.7726 30.9615 64.8054 28.0477C69.4132 21.3054 89.2673 13.1063 115.66 10.5314C116.304 10.4636 116.982 10.3958 117.626 10.3281C134.701 8.80343 154.217 9.75209 172.953 13.5467C206.292 20.1196 236.479 35.7725 246.711 51.4255C249.422 55.5589 250.709 60.4378 250.913 65.7571C251.455 87.0003 235.463 117.188 226.112 138.465V138.567Z" fill="url(#paint0_linear_460_1615)"/>
<path style="mix-blend-mode:screen" d="M172.986 13.6484C145.238 29.4369 79.7799 57.829 62.5685 41.2612C62.1619 35.6032 62.8056 31.0293 64.8385 28.1155C67.244 24.5241 89.5376 15.5457 115.694 10.5991C116.337 10.5314 117.015 10.4636 117.659 10.3958C134.735 8.8712 154.25 9.81987 172.986 13.6145V13.6484Z" fill="url(#paint1_linear_460_1615)"/>
<path d="M227.092 39.2284C232.58 57.829 246.099 51.1883 240.339 45.4286C234.376 39.4317 227.058 39.1945 227.092 39.2284Z" fill="white"/>
<path style="mix-blend-mode:multiply" opacity="0.8" d="M250.944 65.8587C251.317 80.9357 243.389 100.553 235.359 118.238C232.852 123.795 230.378 129.148 228.108 134.129C227.397 135.653 226.753 137.11 226.11 138.567C222.044 136.466 215.302 132.841 210.762 130.097C211.609 128.098 212.489 126.031 213.404 123.863C217.029 115.325 221.027 105.77 223.501 96.5886C227.058 83.5106 227.532 71.178 219.537 63.6226C233.089 73.1431 244.1 69.3484 250.944 65.8248V65.8587Z" fill="url(#paint2_linear_460_1615)"/>
<path style="mix-blend-mode:multiply" opacity="0.8" d="M97.5005 115.223C97.4666 116.206 97.4327 117.188 97.3988 118.205C94.3495 119.356 91.3003 120.542 88.2849 121.728C79.2726 99.4346 65.0088 64.4696 62.7049 43.1925C72.2931 50.714 84.558 50.7817 92.8927 49.9008C90.9276 50.9512 89.4029 52.0692 88.4542 53.1873C79.8146 63.487 91.944 98.3504 97.5005 115.223Z" fill="url(#paint3_linear_460_1615)"/>
<path d="M65.656 30.521C89.4404 49.8331 101.061 18.6289 94.5564 16.8332C87.5091 15.0375 69.3829 24.1514 67.7566 26.1165C66.0287 27.98 65.656 30.4872 65.656 30.4872V30.521Z" fill="white"/>
<path style="mix-blend-mode:multiply" opacity="0.8" d="M85.3356 114.444C94.2123 110.785 89.198 88.0167 89.198 88.0167L98.5491 117.391L86.928 118.984L85.3356 114.444Z" fill="url(#paint4_linear_460_1615)"/>
<path style="mix-blend-mode:multiply" opacity="0.8" d="M235.363 118.238C232.856 123.795 230.382 129.148 228.112 134.128L213.408 123.896C217.033 115.359 221.031 105.804 223.505 96.6224C223.098 113.122 229.942 117.425 235.363 118.272V118.238Z" fill="url(#paint5_linear_460_1615)"/>
<path d="M241.596 147.681C235.769 160.928 215.406 216.425 213.306 224.997C213.102 225.607 213.001 225.912 213.001 225.912C210.968 224.421 163.399 268.906 109.63 235.33C110.884 234.992 76.7323 132.265 75.7836 127.725C74.9366 122.372 126.232 98.7908 130.095 99.5701C133.042 98.8586 194.976 106.346 194.807 107.058C196.128 107.769 244.747 141.684 242.714 144.394C242.647 144.801 242.274 145.919 241.596 147.647V147.681Z" fill="url(#paint6_linear_460_1615)"/>
<path d="M128.261 102.653C128.837 109.565 116.505 134.772 81.8108 129.08C80.2523 128.843 78.626 128.538 76.932 128.199C76.932 128.199 76.4915 129.216 76.9658 126.2C76.5254 122.948 120.672 99.5701 127.076 100.993C127.719 101.095 128.126 101.705 128.228 102.653H128.261Z" fill="url(#paint7_linear_460_1615)"/>
<path d="M195.449 108.108C207.138 151.306 240.985 145.817 241.798 143.751C243.458 142.091 196.703 108.82 195.449 108.108Z" fill="url(#paint8_linear_460_1615)"/>
<path style="mix-blend-mode:screen" d="M171.055 105.533C139.614 102.518 180.813 185.187 145.171 211.411C117.253 237.668 75.8843 146.969 81.8134 129.08C116.507 134.772 128.84 109.565 128.264 102.653C131.923 102.111 135.379 101.84 138.53 101.908C156.114 102.179 171.089 105.567 171.055 105.533Z" fill="url(#paint9_linear_460_1615)"/>
<path style="mix-blend-mode:multiply" opacity="0.8" d="M164.89 185.458C165.974 198.604 167.532 224.861 164.28 228.114C159.672 233.331 139.174 229.401 139.073 229.164C137.006 227.741 140.191 198.57 142.833 183.865C135.142 179.766 129.891 169.534 130.467 158.421C131.009 144.97 144.426 128.843 156.25 129.622C168.21 130.469 180.102 149.68 179.086 162.08C178.442 171.939 172.513 180.952 164.89 185.424V185.458Z" fill="url(#paint10_linear_460_1615)"/>
<path d="M159.467 179.021C160.856 191.285 163.126 215.917 159.874 218.898C155.198 223.506 139.782 218.898 139.681 218.763C137.546 217.441 140.087 193.081 142.73 179.563C134.937 175.734 129.55 163.808 130.16 153.576C130.804 141.21 140.731 125.997 152.589 126.776C164.583 127.623 175.323 144.53 174.646 156.117C174.205 165.333 167.124 174.989 159.467 179.054V179.021Z" fill="url(#paint11_linear_460_1615)"/>
<path d="M155.268 173.837C156.386 183.323 158.249 212.054 155.674 214.324C154.218 215.68 152.185 215.917 150.22 215.713C147.204 215.409 144.426 213.986 144.426 213.952C142.698 212.969 144.765 184.543 146.832 174.243C140.598 171.296 134.194 163.435 134.634 155.372C135.143 145.512 142.901 134.196 152.252 134.738C156.149 134.976 159.74 137.11 162.586 140.193C166.686 144.598 169.227 151.001 168.922 156.524C168.549 163.842 161.366 170.72 155.268 173.837Z" fill="#DD5B28"/>
<path style="mix-blend-mode:multiply" opacity="0.8" d="M155.264 173.837C156.382 183.323 158.246 212.054 155.671 214.324C154.214 215.68 152.181 215.917 150.216 215.713C149.81 207.921 151.504 186.271 153.198 177.767C146.964 174.819 140.526 168.043 140.967 159.98C141.475 150.12 149.234 138.77 158.619 139.312C159.974 139.414 161.295 139.719 162.549 140.193C166.648 144.598 169.189 151.001 168.884 156.524C168.512 163.842 161.329 170.72 155.23 173.837H155.264Z" fill="url(#paint12_linear_460_1615)"/>
<path d="M163.465 132.434C163.77 146.224 170.241 139.482 168.75 137.381C167.192 135.247 163.465 132.434 163.465 132.434Z" fill="white"/>
<path style="mix-blend-mode:multiply" opacity="0.8" d="M241.597 147.681C235.77 160.928 215.408 216.425 213.307 224.997C203.21 232.213 186.27 238.786 186.236 238.617C208.021 223.371 220.591 155.033 224.623 151.611C226.69 149.917 234.347 148.494 241.597 147.681Z" fill="url(#paint13_linear_460_1615)"/>
<path d="M101.429 131.215C113.49 136.534 115.286 124.879 113.592 123.761C111.729 122.609 92.6536 127.454 101.429 131.215Z" fill="white"/>
<path style="mix-blend-mode:multiply" opacity="0.8" d="M166.312 243.801C183.185 237.872 172.343 214.121 191.452 203.889C211.442 194.199 205.953 223.099 195.822 233.027C185.794 243.259 166.482 244.106 166.312 243.767V243.801Z" fill="url(#paint14_linear_460_1615)"/>
<path style="mix-blend-mode:multiply" opacity="0.8" d="M210.324 139.041C222.928 147.545 218.557 161.301 218.625 161.369C218.625 161.369 212.797 160.352 208.901 152.255C204.903 144.089 210.256 138.973 210.324 139.041Z" fill="url(#paint15_linear_460_1615)"/>
<path style="mix-blend-mode:screen" opacity="0.65" d="M282.616 299.167C341.107 250.659 349.199 163.918 300.691 105.427C252.182 46.936 165.442 38.8435 106.951 87.3521C48.4594 135.861 40.367 222.601 88.8756 281.092C137.384 339.584 224.125 347.676 282.616 299.167Z" fill="url(#paint16_radial_460_1615)"/>
<path style="mix-blend-mode:screen" opacity="0.65" d="M318.48 259.878C333.147 193.556 291.272 127.902 224.951 113.235C158.629 98.5684 92.9751 140.443 78.3084 206.765C63.6417 273.086 105.516 338.74 171.838 353.407C238.16 368.074 303.814 326.199 318.48 259.878Z" fill="url(#paint17_radial_460_1615)"/>
<rect x="217.061" y="196.164" width="21.9548" height="21.9548" fill="url(#paint18_radial_460_1615)" style="mix-blend-mode:screen"/>
<path d="M230.852 207.582C230.648 208.666 229.598 209.378 228.514 209.174C227.43 208.971 226.718 207.921 226.921 206.837C227.125 205.753 228.175 205.041 229.259 205.244C230.343 205.448 231.055 206.498 230.852 207.582Z" fill="#B6FFFF"/>
<rect x="223.564" y="98.5875" width="113.026" height="115.466" fill="url(#paint19_radial_460_1615)" style="mix-blend-mode:screen"/>
<path d="M281.267 150.324C282.859 148.765 285.434 148.799 286.992 150.391C288.551 151.984 288.517 154.559 286.925 156.117C285.332 157.676 282.757 157.642 281.199 156.049C279.64 154.457 279.674 151.882 281.267 150.324Z" fill="#B6FFFF"/>
<path d="M323.884 268.94C325.002 267.856 326.763 267.89 327.848 269.008C328.932 270.126 328.898 271.888 327.78 272.972C326.662 274.056 324.9 274.022 323.816 272.904C322.732 271.786 322.766 270.024 323.884 268.94Z" fill="#B6FFFF"/>
<path d="M254.09 218.492C254.564 218.051 255.276 218.051 255.75 218.492C256.191 218.966 256.191 219.678 255.75 220.152C255.276 220.592 254.564 220.592 254.09 220.152C253.65 219.678 253.65 218.966 254.09 218.492Z" fill="#B6FFFF"/>
<defs>
<linearGradient id="paint0_linear_460_1615" x1="5.61564" y1="-88.6377" x2="241.866" y2="173.566" gradientUnits="userSpaceOnUse">
<stop stop-color="#FFB230"/>
<stop offset="1" stop-color="#F07134"/>
</linearGradient>
<linearGradient id="paint1_linear_460_1615" x1="99.3969" y1="-9.05174" x2="138.868" y2="69.4162" gradientUnits="userSpaceOnUse">
<stop stop-color="#FFC21A"/>
<stop offset="1"/>
</linearGradient>
<linearGradient id="paint2_linear_460_1615" x1="235.867" y1="16.4944" x2="224.856" y2="197.723" gradientUnits="userSpaceOnUse">
<stop stop-color="white"/>
<stop offset="0.98" stop-color="#AA0038"/>
</linearGradient>
<linearGradient id="paint3_linear_460_1615" x1="86.3876" y1="-23.3494" x2="73.1741" y2="194.267" gradientUnits="userSpaceOnUse">
<stop stop-color="white"/>
<stop offset="0.98" stop-color="#AA0038"/>
</linearGradient>
<linearGradient id="paint4_linear_460_1615" x1="92.7894" y1="45.1914" x2="91.8746" y2="120.237" gradientUnits="userSpaceOnUse">
<stop stop-color="white"/>
<stop offset="0.98" stop-color="#AA0038"/>
</linearGradient>
<linearGradient id="paint5_linear_460_1615" x1="225.266" y1="46.8177" x2="224.385" y2="121.83" gradientUnits="userSpaceOnUse">
<stop stop-color="white"/>
<stop offset="0.98" stop-color="#AA0038"/>
</linearGradient>
<linearGradient id="paint6_linear_460_1615" x1="144.291" y1="77.6153" x2="170.785" y2="180.85" gradientUnits="userSpaceOnUse">
<stop stop-color="#FFB230"/>
<stop offset="1" stop-color="#F07134"/>
</linearGradient>
<linearGradient id="paint7_linear_460_1615" x1="130.904" y1="173.667" x2="104.985" y2="120.373" gradientUnits="userSpaceOnUse">
<stop stop-color="#F1A524"/>
<stop offset="1" stop-color="#D75F26"/>
</linearGradient>
<linearGradient id="paint8_linear_460_1615" x1="207.206" y1="54.8475" x2="216.828" y2="114.681" gradientUnits="userSpaceOnUse">
<stop stop-color="#F1A524"/>
<stop offset="1" stop-color="#D75F26"/>
</linearGradient>
<linearGradient id="paint9_linear_460_1615" x1="91.0967" y1="76.7344" x2="173.427" y2="204.33" gradientUnits="userSpaceOnUse">
<stop stop-color="#FFC21A"/>
<stop offset="1"/>
</linearGradient>
<linearGradient id="paint10_linear_460_1615" x1="137.379" y1="111.665" x2="149.847" y2="158.658" gradientUnits="userSpaceOnUse">
<stop stop-color="white"/>
<stop offset="0.98" stop-color="#AA0038"/>
</linearGradient>
<linearGradient id="paint11_linear_460_1615" x1="147.101" y1="145.953" x2="174.002" y2="252.406" gradientUnits="userSpaceOnUse">
<stop stop-color="#FFB230"/>
<stop offset="1" stop-color="#F07134"/>
</linearGradient>
<linearGradient id="paint12_linear_460_1615" x1="172.408" y1="233.094" x2="159.77" y2="185.187" gradientUnits="userSpaceOnUse">
<stop stop-color="white"/>
<stop offset="0.98" stop-color="#AA0038"/>
</linearGradient>
<linearGradient id="paint13_linear_460_1615" x1="179.528" y1="105.94" x2="212.087" y2="188.507" gradientUnits="userSpaceOnUse">
<stop stop-color="white"/>
<stop offset="0.98" stop-color="#AA0038"/>
</linearGradient>
<linearGradient id="paint14_linear_460_1615" x1="171.665" y1="191.421" x2="212.424" y2="291.844" gradientUnits="userSpaceOnUse">
<stop stop-color="white"/>
<stop offset="0.98" stop-color="#AA0038"/>
</linearGradient>
<linearGradient id="paint15_linear_460_1615" x1="180.407" y1="171.736" x2="301.43" y2="95.3009" gradientUnits="userSpaceOnUse">
<stop stop-color="white"/>
<stop offset="0.98" stop-color="#AA0038"/>
</linearGradient>
<radialGradient id="paint16_radial_460_1615" cx="0" cy="0" r="1" gradientUnits="userSpaceOnUse" gradientTransform="translate(191.071 191.961) rotate(-104.96) scale(141.961 141.961)">
<stop offset="0.03" stop-color="#2500FF"/>
<stop offset="0.07" stop-color="#2200ED"/>
<stop offset="0.21" stop-color="#1900AF"/>
<stop offset="0.36" stop-color="#110079"/>
<stop offset="0.51" stop-color="#0B004E"/>
<stop offset="0.64" stop-color="#06002C"/>
<stop offset="0.77" stop-color="#020013"/>
<stop offset="0.89" stop-color="#000005"/>
<stop offset="0.99"/>
</radialGradient>
<radialGradient id="paint17_radial_460_1615" cx="0" cy="0" r="1" gradientUnits="userSpaceOnUse" gradientTransform="translate(195.066 232.311) rotate(-104.97) scale(126.917 126.917)">
<stop offset="0.03" stop-color="#2500FF"/>
<stop offset="0.07" stop-color="#2200ED"/>
<stop offset="0.21" stop-color="#1900AF"/>
<stop offset="0.36" stop-color="#110079"/>
<stop offset="0.51" stop-color="#0B004E"/>
<stop offset="0.64" stop-color="#06002C"/>
<stop offset="0.77" stop-color="#020013"/>
<stop offset="0.89" stop-color="#000005"/>
<stop offset="0.99"/>
</radialGradient>
<radialGradient id="paint18_radial_460_1615" cx="0" cy="0" r="1" gradientUnits="userSpaceOnUse" gradientTransform="translate(228.071 206.83) rotate(-27.85) scale(11.3282)">
<stop offset="0.03" stop-color="#2500FF"/>
<stop offset="0.07" stop-color="#2200ED"/>
<stop offset="0.21" stop-color="#1900AF"/>
<stop offset="0.36" stop-color="#110079"/>
<stop offset="0.51" stop-color="#0B004E"/>
<stop offset="0.64" stop-color="#06002C"/>
<stop offset="0.77" stop-color="#020013"/>
<stop offset="0.89" stop-color="#000005"/>
<stop offset="0.99"/>
</radialGradient>
<radialGradient id="paint19_radial_460_1615" cx="0" cy="0" r="1" gradientUnits="userSpaceOnUse" gradientTransform="translate(280.249 154.679) rotate(-28.3584) scale(58.5961 59.2962)">
<stop offset="0.03" stop-color="#2500FF"/>
<stop offset="0.07" stop-color="#2200ED"/>
<stop offset="0.21" stop-color="#1900AF"/>
<stop offset="0.36" stop-color="#110079"/>
<stop offset="0.51" stop-color="#0B004E"/>
<stop offset="0.64" stop-color="#06002C"/>
<stop offset="0.77" stop-color="#020013"/>
<stop offset="0.89" stop-color="#000005"/>
<stop offset="0.99"/>
</radialGradient>
</defs>
</svg>
