<svg width="1934" height="442" viewBox="0 0 1934 442" fill="none" xmlns="http://www.w3.org/2000/svg">
<path d="M364.787 249.308C366.408 249.308 367.567 251.162 366.64 252.552L258.217 439.744C257.753 440.439 257.058 440.902 256.363 440.902H190.105C188.483 440.902 187.325 439.049 188.251 437.659L296.675 250.467C297.138 249.772 297.833 249.308 298.528 249.308H364.787ZM300.381 195.56C299.686 195.56 298.991 195.097 298.528 194.402L188.483 3.96607C187.556 2.57603 188.715 0.722656 190.336 0.722656H256.595C257.29 0.722656 257.985 1.186 258.448 1.88102L368.493 192.317C369.42 193.707 368.262 195.56 366.64 195.56H300.381Z" fill="#E31337"/>
<path d="M313.351 3.96864C312.424 2.5786 313.582 0.725226 315.204 0.725226H381.463C382.158 0.725226 382.853 1.18857 383.316 1.88359L509.578 219.888C510.041 220.583 510.041 221.51 509.578 221.973L383.316 439.978C382.853 440.673 382.158 441.137 381.463 441.137H315.204C313.582 441.137 312.424 439.283 313.351 437.893L438.918 221.047L313.351 3.96864ZM259.602 219.657C260.066 220.352 260.066 221.278 259.602 221.742L132.877 439.747C131.95 441.137 129.865 441.137 129.17 439.747L1.05454 221.742C0.591194 221.047 0.591194 220.12 1.05454 219.657L127.78 1.65191C128.707 0.261865 130.792 0.261865 131.487 1.65191L259.602 219.657Z" fill="#E31337"/>
<path d="M861.027 84.125H934.236V354.72H861.027V249.077H757.006V354.72H683.797V84.125H757.006V181.891H861.027V84.125ZM1088.3 84.125H1160.58V354.72H1088.3V84.125ZM1396.66 354.72L1290.78 87.6001V84.125H1370.25L1436.5 267.842L1502.76 84.125H1582.23V87.6001L1476.12 354.72H1396.66ZM1783.09 288.229H1933.68V354.72H1709.65V84.125H1930.9V150.615H1783.09V188.146H1876.92V250.003H1783.09V288.229Z" fill="white"/>
</svg>
